<svg width="28" height="29" viewBox="0 0 28 29" fill="none" xmlns="http://www.w3.org/2000/svg">
<path d="M28 15C28 16.4971 27.8796 17.9651 27.6497 19.3965C26.8886 24.1351 23.1351 27.8886 18.3965 28.6497C16.965 28.8796 15.497 29 14 29C12.503 29 11.035 28.8796 9.60355 28.6497C4.86494 27.8886 1.11135 24.1351 0.350273 19.3965C0.120366 17.9651 0 16.4971 0 15C0 13.5029 0.120366 12.0349 0.350273 10.6035C1.11135 5.86489 4.86494 2.11135 9.60355 1.35027C11.035 1.12036 12.503 1 14 1C15.497 1 16.965 1.12036 18.3965 1.35027C23.1351 2.11135 26.8886 5.86489 27.6497 10.6035C27.8796 12.0349 28 13.5029 28 15Z" fill="#0B5CFF"/>
<path d="M28 15C28 16.4971 27.8796 17.9651 27.6497 19.3965C26.8886 24.1351 23.1351 27.8886 18.3965 28.6497C16.965 28.8796 15.497 29 14 29C12.503 29 11.035 28.8796 9.60355 28.6497C4.86494 27.8886 1.11135 24.1351 0.350273 19.3965C0.120366 17.9651 0 16.4971 0 15C0 13.5029 0.120366 12.0349 0.350273 10.6035C1.11135 5.86489 4.86494 2.11135 9.60355 1.35027C11.035 1.12036 12.503 1 14 1C15.497 1 16.965 1.12036 18.3965 1.35027C23.1351 2.11135 26.8886 5.86489 27.6497 10.6035C27.8796 12.0349 28 13.5029 28 15Z" fill="url(#paint0_radial_3875_11533)"/>
<path d="M27.9999 15C27.9999 16.4971 27.8795 17.9651 27.6496 19.3965C26.8885 24.1351 23.135 27.8886 18.3964 28.6497C16.9649 28.8796 15.497 29 13.9999 29C12.5029 29 11.0349 28.8796 9.60349 28.6497C4.86484 27.8886 1.1113 24.1351 0.350223 19.3965C0.120316 17.965 0 16.4971 0 15C0 13.503 0.120316 12.0349 0.350223 10.6034C1.11135 5.86489 4.86489 2.11125 9.60349 1.35022C11.035 1.12032 12.5029 1 13.9999 1C15.497 1 16.965 1.12032 18.3964 1.35022C23.135 2.11125 26.8885 5.86489 27.6496 10.6034C27.8795 12.0349 27.9999 13.5029 27.9999 15Z" fill="url(#paint1_radial_3875_11533)"/>
<g clip-path="url(#clip0_3875_11533)">
<path d="M15 7H8C6.89543 7 6 7.89543 6 9V13C6 14.1046 6.89543 15 8 15L8.00006 16.999C8.00006 17.4444 8.53861 17.6675 8.85358 17.3525L10.7668 15.4393C11.0481 15.158 11.4296 15 11.8274 15H15C16.1046 15 17 14.1046 17 13V9C17 7.89543 16.1046 7 15 7ZM22 14.5V18.5C22 19.6046 21.1046 20.5 20 20.5L19.9999 22.499C19.9999 22.9444 19.4614 23.1675 19.1464 22.8525L17.2332 20.9393C16.9519 20.658 16.5704 20.5 16.1726 20.5H13C11.8954 20.5 11 19.6046 11 18.5V17.059C11 16.7781 11.1116 16.5088 11.3102 16.3102C11.5088 16.1116 11.7781 16 12.059 16H15C16.6568 16 18 14.6568 18 13V12.5H20C21.1046 12.5 22 13.3954 22 14.5Z" fill="white"/>
</g>
<defs>
<radialGradient id="paint0_radial_3875_11533" cx="0" cy="0" r="1" gradientUnits="userSpaceOnUse" gradientTransform="translate(14 13.3731) scale(18.8757 15.7759)">
<stop offset="0.82" stop-color="#0B5CFF" stop-opacity="0"/>
<stop offset="0.98" stop-color="#003CB3"/>
</radialGradient>
<radialGradient id="paint1_radial_3875_11533" cx="0" cy="0" r="1" gradientUnits="userSpaceOnUse" gradientTransform="translate(13.9999 16.6211) scale(18.8689 15.7702)">
<stop offset="0.8" stop-color="#0B5CFF" stop-opacity="0"/>
<stop offset="1" stop-color="#71A5F1"/>
</radialGradient>
<clipPath id="clip0_3875_11533">
<rect width="18" height="18" fill="white" transform="translate(5 6)"/>
</clipPath>
</defs>
</svg>
