<svg width="28" height="29" viewBox="0 0 28 29" fill="none" xmlns="http://www.w3.org/2000/svg">
<path d="M28 15C28 16.4971 27.8796 17.9651 27.6497 19.3965C26.8886 24.1351 23.1351 27.8886 18.3965 28.6497C16.965 28.8796 15.497 29 14 29C12.503 29 11.035 28.8796 9.60355 28.6497C4.86494 27.8886 1.11135 24.1351 0.350273 19.3965C0.120366 17.9651 0 16.4971 0 15C0 13.5029 0.120366 12.0349 0.350273 10.6035C1.11135 5.86489 4.86494 2.11135 9.60355 1.35027C11.035 1.12036 12.503 1 14 1C15.497 1 16.965 1.12036 18.3965 1.35027C23.1351 2.11135 26.8886 5.86489 27.6497 10.6035C27.8796 12.0349 28 13.5029 28 15Z" fill="#0B5CFF"/>
<path d="M28 15C28 16.4971 27.8796 17.9651 27.6497 19.3965C26.8886 24.1351 23.1351 27.8886 18.3965 28.6497C16.965 28.8796 15.497 29 14 29C12.503 29 11.035 28.8796 9.60355 28.6497C4.86494 27.8886 1.11135 24.1351 0.350273 19.3965C0.120366 17.9651 0 16.4971 0 15C0 13.5029 0.120366 12.0349 0.350273 10.6035C1.11135 5.86489 4.86494 2.11135 9.60355 1.35027C11.035 1.12036 12.503 1 14 1C15.497 1 16.965 1.12036 18.3965 1.35027C23.1351 2.11135 26.8886 5.86489 27.6497 10.6035C27.8796 12.0349 28 13.5029 28 15Z" fill="url(#paint0_radial_3875_11946)"/>
<path d="M27.9999 15C27.9999 16.4971 27.8795 17.9651 27.6496 19.3965C26.8885 24.1351 23.135 27.8886 18.3964 28.6497C16.9649 28.8796 15.497 29 13.9999 29C12.5029 29 11.0349 28.8796 9.60349 28.6497C4.86484 27.8886 1.1113 24.1351 0.350223 19.3965C0.120316 17.965 0 16.4971 0 15C0 13.503 0.120316 12.0349 0.350223 10.6034C1.11135 5.86489 4.86489 2.11125 9.60349 1.35022C11.035 1.12032 12.5029 1 13.9999 1C15.497 1 16.965 1.12032 18.3964 1.35022C23.135 2.11125 26.8885 5.86489 27.6496 10.6034C27.8795 12.0349 27.9999 13.5029 27.9999 15Z" fill="url(#paint1_radial_3875_11946)"/>
<g clip-path="url(#clip0_3875_11946)">
<path d="M21.6047 13.5525C21.8189 13.4941 22 13.2905 22 13.0686V10.75C22 9.92163 21.3284 9.25 20.5 9.25H7.5C6.67163 9.25 6 9.92163 6 10.75V13.0686C6 13.2905 6.18115 13.4941 6.39526 13.5525C7.03198 13.7258 7.5 14.3083 7.5 14.9998C7.5 15.6914 7.03174 16.2737 6.39502 16.4473C6.18115 16.5054 6 16.7092 6 16.9309V19.25C6 20.0784 6.67163 20.75 7.5 20.75H20.5C21.3284 20.75 22 20.0784 22 19.25V16.9309C22 16.7092 21.8189 16.5056 21.605 16.4473C20.9683 16.2737 20.5 15.6914 20.5 14.9998C20.5 14.3081 20.968 13.7258 21.6047 13.5525ZM12.2085 12C13.0369 12 13.7078 12.6716 13.7078 13.4998C13.7078 14.3284 13.0369 15 12.2085 15C11.3799 15 10.7078 14.3284 10.7078 13.4998C10.7078 12.6716 11.3799 12 12.2085 12ZM14.1731 17.9999H10.2439C9.86426 17.9999 9.4585 17.6641 9.4585 17.2498C9.4585 16.4216 10.6365 15.75 12.2085 15.75C13.7803 15.75 14.9585 16.4216 14.9585 17.2498C14.9585 17.6641 14.5525 17.9999 14.1731 17.9999ZM14.9995 14.2498C14.9995 13.5596 15.5596 12.9999 16.25 12.9999C16.9404 12.9999 17.4998 13.5596 17.4998 14.2498C17.4998 14.9402 16.9404 15.5 16.25 15.5C15.5596 15.5 14.9995 14.9402 14.9995 14.2498ZM17.8872 17.9999H15.7727C15.8879 17.7704 15.9585 17.5176 15.9585 17.2499C15.9585 16.8571 15.834 16.4973 15.6216 16.176C15.8213 16.146 16.0286 16.125 16.25 16.125C17.5601 16.125 18.5418 16.6846 18.5418 17.3748C18.5418 17.72 18.2036 17.9999 17.8872 17.9999Z" fill="white"/>
</g>
<defs>
<radialGradient id="paint0_radial_3875_11946" cx="0" cy="0" r="1" gradientUnits="userSpaceOnUse" gradientTransform="translate(14 13.3731) scale(18.8757 15.7759)">
<stop offset="0.82" stop-color="#0B5CFF" stop-opacity="0"/>
<stop offset="0.98" stop-color="#003CB3"/>
</radialGradient>
<radialGradient id="paint1_radial_3875_11946" cx="0" cy="0" r="1" gradientUnits="userSpaceOnUse" gradientTransform="translate(13.9999 16.6211) scale(18.8689 15.7702)">
<stop offset="0.8" stop-color="#0B5CFF" stop-opacity="0"/>
<stop offset="1" stop-color="#71A5F1"/>
</radialGradient>
<clipPath id="clip0_3875_11946">
<rect width="18" height="18" fill="white" transform="translate(5 6)"/>
</clipPath>
</defs>
</svg>
