<svg width="28" height="29" viewBox="0 0 28 29" fill="none" xmlns="http://www.w3.org/2000/svg">
<path d="M28 15C28 16.4971 27.8796 17.9651 27.6497 19.3965C26.8886 24.1351 23.1351 27.8886 18.3965 28.6497C16.965 28.8796 15.497 29 14 29C12.503 29 11.035 28.8796 9.60355 28.6497C4.86494 27.8886 1.11135 24.1351 0.350273 19.3965C0.120366 17.9651 0 16.4971 0 15C0 13.5029 0.120366 12.0349 0.350273 10.6035C1.11135 5.86489 4.86494 2.11135 9.60355 1.35027C11.035 1.12036 12.503 1 14 1C15.497 1 16.965 1.12036 18.3965 1.35027C23.1351 2.11135 26.8886 5.86489 27.6497 10.6035C27.8796 12.0349 28 13.5029 28 15Z" fill="#0B5CFF"/>
<path d="M28 15C28 16.4971 27.8796 17.9651 27.6497 19.3965C26.8886 24.1351 23.1351 27.8886 18.3965 28.6497C16.965 28.8796 15.497 29 14 29C12.503 29 11.035 28.8796 9.60355 28.6497C4.86494 27.8886 1.11135 24.1351 0.350273 19.3965C0.120366 17.9651 0 16.4971 0 15C0 13.5029 0.120366 12.0349 0.350273 10.6035C1.11135 5.86489 4.86494 2.11135 9.60355 1.35027C11.035 1.12036 12.503 1 14 1C15.497 1 16.965 1.12036 18.3965 1.35027C23.1351 2.11135 26.8886 5.86489 27.6497 10.6035C27.8796 12.0349 28 13.5029 28 15Z" fill="url(#paint0_radial_3875_11763)"/>
<path d="M27.9999 15C27.9999 16.4971 27.8795 17.9651 27.6496 19.3965C26.8885 24.1351 23.135 27.8886 18.3964 28.6497C16.9649 28.8796 15.497 29 13.9999 29C12.5029 29 11.0349 28.8796 9.60349 28.6497C4.86484 27.8886 1.1113 24.1351 0.350223 19.3965C0.120316 17.965 0 16.4971 0 15C0 13.503 0.120316 12.0349 0.350223 10.6034C1.11135 5.86489 4.86489 2.11125 9.60349 1.35022C11.035 1.12032 12.5029 1 13.9999 1C15.497 1 16.965 1.12032 18.3964 1.35022C23.135 2.11125 26.8885 5.86489 27.6496 10.6034C27.8795 12.0349 27.9999 13.5029 27.9999 15Z" fill="url(#paint1_radial_3875_11763)"/>
<path d="M20.75 8.25H7.25C6.00738 8.25 5 9.25745 5 10.5V19.5C5 20.7427 6.00738 21.75 7.25 21.75H20.75C21.9926 21.75 23 20.7427 23 19.5V10.5C23 9.25745 21.9926 8.25 20.75 8.25ZM13.9999 20.0629C11.2083 20.0629 8.93743 17.792 8.93743 15.0004C8.93743 12.2088 11.2083 9.93792 13.9999 9.93792C16.7916 9.93792 19.0624 12.2088 19.0624 15.0004C19.0624 17.792 16.7916 20.0629 13.9999 20.0629ZM13.9999 11.0629C11.8288 11.0629 10.0624 12.8293 10.0624 15.0004C10.0624 17.1716 11.8288 18.9379 13.9999 18.9379C16.1711 18.9379 17.9374 17.1716 17.9374 15.0004C17.9374 12.8293 16.1711 11.0629 13.9999 11.0629ZM14.0126 12.6094C14.2694 12.6094 14.4776 12.736 14.4776 13.0339C14.4776 13.3317 14.2694 13.4583 14.0126 13.4583C13.7557 13.4583 13.5475 13.3317 13.5475 13.0339C13.5475 12.736 13.7557 12.6094 14.0126 12.6094ZM14.8314 17.3906H13.2499C13.1626 17.3906 13.0918 17.3199 13.0918 17.2327C13.0918 17.153 13.1512 17.0863 13.2302 17.0759C13.4631 17.0454 13.6349 16.9394 13.6349 16.8133V14.613C13.6349 14.4917 13.4701 14.3897 13.2464 14.3598C13.1684 14.3493 13.1106 14.282 13.1106 14.2035C13.1106 14.1163 13.1813 14.045 13.2686 14.045H14.1303C14.3049 14.045 14.4463 14.1865 14.4463 14.3611V16.8133C14.4463 16.9394 14.6181 17.0454 14.851 17.0759C14.93 17.0863 14.9894 17.153 14.9894 17.2327C14.9894 17.3199 14.9187 17.3906 14.8314 17.3906Z" fill="white"/>
<defs>
<radialGradient id="paint0_radial_3875_11763" cx="0" cy="0" r="1" gradientUnits="userSpaceOnUse" gradientTransform="translate(14 13.3731) scale(18.8757 15.7759)">
<stop offset="0.82" stop-color="#0B5CFF" stop-opacity="0"/>
<stop offset="0.98" stop-color="#003CB3"/>
</radialGradient>
<radialGradient id="paint1_radial_3875_11763" cx="0" cy="0" r="1" gradientUnits="userSpaceOnUse" gradientTransform="translate(13.9999 16.6211) scale(18.8689 15.7702)">
<stop offset="0.8" stop-color="#0B5CFF" stop-opacity="0"/>
<stop offset="1" stop-color="#71A5F1"/>
</radialGradient>
</defs>
</svg>
