<svg width="28" height="29" viewBox="0 0 28 29" fill="none" xmlns="http://www.w3.org/2000/svg">
<path d="M28 15C28 16.4971 27.8796 17.9651 27.6497 19.3965C26.8886 24.1351 23.1351 27.8886 18.3965 28.6497C16.965 28.8796 15.497 29 14 29C12.503 29 11.035 28.8796 9.60355 28.6497C4.86494 27.8886 1.11135 24.1351 0.350273 19.3965C0.120366 17.9651 0 16.4971 0 15C0 13.5029 0.120366 12.0349 0.350273 10.6035C1.11135 5.86489 4.86494 2.11135 9.60355 1.35027C11.035 1.12036 12.503 1 14 1C15.497 1 16.965 1.12036 18.3965 1.35027C23.1351 2.11135 26.8886 5.86489 27.6497 10.6035C27.8796 12.0349 28 13.5029 28 15Z" fill="#0B5CFF"/>
<path d="M28 15C28 16.4971 27.8796 17.9651 27.6497 19.3965C26.8886 24.1351 23.1351 27.8886 18.3965 28.6497C16.965 28.8796 15.497 29 14 29C12.503 29 11.035 28.8796 9.60355 28.6497C4.86494 27.8886 1.11135 24.1351 0.350273 19.3965C0.120366 17.9651 0 16.4971 0 15C0 13.5029 0.120366 12.0349 0.350273 10.6035C1.11135 5.86489 4.86494 2.11135 9.60355 1.35027C11.035 1.12036 12.503 1 14 1C15.497 1 16.965 1.12036 18.3965 1.35027C23.1351 2.11135 26.8886 5.86489 27.6497 10.6035C27.8796 12.0349 28 13.5029 28 15Z" fill="url(#paint0_radial_3875_11723)"/>
<path d="M27.9999 15C27.9999 16.4971 27.8795 17.9651 27.6496 19.3965C26.8885 24.1351 23.135 27.8886 18.3964 28.6497C16.9649 28.8796 15.497 29 13.9999 29C12.5029 29 11.0349 28.8796 9.60349 28.6497C4.86484 27.8886 1.1113 24.1351 0.350223 19.3965C0.120316 17.965 0 16.4971 0 15C0 13.503 0.120316 12.0349 0.350223 10.6034C1.11135 5.86489 4.86489 2.11125 9.60349 1.35022C11.035 1.12032 12.5029 1 13.9999 1C15.497 1 16.965 1.12032 18.3964 1.35022C23.135 2.11125 26.8885 5.86489 27.6496 10.6034C27.8795 12.0349 27.9999 13.5029 27.9999 15Z" fill="url(#paint1_radial_3875_11723)"/>
<g clip-path="url(#clip0_3875_11723)">
<path d="M20.5116 18.3295L21.3994 21.8789C21.4667 22.1465 21.3037 22.418 21.0356 22.4853C20.9951 22.4951 20.954 22.5 20.914 22.5C20.6899 22.5 20.4863 22.3486 20.4296 22.1211L19.5239 18.4999H17.5C16.9487 18.4999 16.5 18.9482 16.5 19.5V22C16.5 22.2764 16.2764 22.5 16 22.5C15.7236 22.5 15.5 22.2764 15.5 22V19.5C15.5 18.3974 16.397 17.4999 17.5 17.4999H19.914C20.0293 17.4999 20.1289 17.4228 20.1567 17.3115L21.0151 13.8788C21.0815 13.6102 21.3539 13.4481 21.621 13.5145C21.8891 13.5819 22.0522 13.8534 21.9848 14.121L21.1264 17.5536C21.0401 17.8996 20.8069 18.1662 20.5116 18.3295ZM12.5 19.5V22C12.5 22.2764 12.2764 22.5 12 22.5C11.7236 22.5 11.5 22.2764 11.5 22V19.5C11.5 18.9482 11.0513 18.4999 10.5 18.4999H8.47604L7.57035 22.1211C7.51371 22.3486 7.3101 22.5 7.08598 22.5C7.04594 22.5 7.00493 22.4951 6.9644 22.4853C6.69634 22.418 6.53325 22.1465 6.60063 21.8789L7.48838 18.3295C7.19303 18.1659 6.95988 17.8996 6.87358 17.5536L6.01519 14.1209C5.94781 13.8534 6.11089 13.5819 6.37896 13.5145C6.64556 13.4491 6.91802 13.6102 6.98491 13.8787L7.8433 17.3114C7.87113 17.4228 7.97074 17.4999 8.08597 17.4999H10.5C11.603 17.4999 12.5 18.3974 12.5 19.5ZM18 7.5H9.99999C8.89745 7.5 7.99999 8.39746 7.99999 9.5V13.5C7.99999 14.6025 8.89745 15.5 9.99999 15.5H18C19.1025 15.5 20 14.6025 20 13.5V9.5C20 8.39746 19.1025 7.5 18 7.5ZM13.9998 8.75024C14.7593 8.75024 15.3743 9.3659 15.3743 10.1251C15.3743 10.8846 14.7593 11.5002 13.9998 11.5002C13.2404 11.5002 12.6243 10.8846 12.6243 10.1251C12.6243 9.3659 13.2404 8.75024 13.9998 8.75024ZM15.7859 14.2502H12.2139C11.8689 14.2502 11.4998 13.9424 11.4998 13.5627C11.4998 12.8034 12.5708 12.1877 13.9998 12.1877C15.4288 12.1877 16.4999 12.8034 16.4999 13.5627C16.4999 13.9424 16.1309 14.2502 15.7859 14.2502Z" fill="white"/>
</g>
<defs>
<radialGradient id="paint0_radial_3875_11723" cx="0" cy="0" r="1" gradientUnits="userSpaceOnUse" gradientTransform="translate(14 13.3731) scale(18.8757 15.7759)">
<stop offset="0.82" stop-color="#0B5CFF" stop-opacity="0"/>
<stop offset="0.98" stop-color="#003CB3"/>
</radialGradient>
<radialGradient id="paint1_radial_3875_11723" cx="0" cy="0" r="1" gradientUnits="userSpaceOnUse" gradientTransform="translate(13.9999 16.6211) scale(18.8689 15.7702)">
<stop offset="0.8" stop-color="#0B5CFF" stop-opacity="0"/>
<stop offset="1" stop-color="#71A5F1"/>
</radialGradient>
<clipPath id="clip0_3875_11723">
<rect width="18" height="18" fill="white" transform="translate(5 6)"/>
</clipPath>
</defs>
</svg>
