<svg width="28" height="29" viewBox="0 0 28 29" fill="none" xmlns="http://www.w3.org/2000/svg">
<path d="M28 15C28 16.4971 27.8796 17.9651 27.6497 19.3965C26.8886 24.1351 23.1351 27.8886 18.3965 28.6497C16.965 28.8796 15.497 29 14 29C12.503 29 11.035 28.8796 9.60355 28.6497C4.86494 27.8886 1.11135 24.1351 0.350273 19.3965C0.120366 17.9651 0 16.4971 0 15C0 13.5029 0.120366 12.0349 0.350273 10.6035C1.11135 5.86489 4.86494 2.11135 9.60355 1.35027C11.035 1.12036 12.503 1 14 1C15.497 1 16.965 1.12036 18.3965 1.35027C23.1351 2.11135 26.8886 5.86489 27.6497 10.6035C27.8796 12.0349 28 13.5029 28 15Z" fill="#0B5CFF"/>
<path d="M28 15C28 16.4971 27.8796 17.9651 27.6497 19.3965C26.8886 24.1351 23.1351 27.8886 18.3965 28.6497C16.965 28.8796 15.497 29 14 29C12.503 29 11.035 28.8796 9.60355 28.6497C4.86494 27.8886 1.11135 24.1351 0.350273 19.3965C0.120366 17.9651 0 16.4971 0 15C0 13.5029 0.120366 12.0349 0.350273 10.6035C1.11135 5.86489 4.86494 2.11135 9.60355 1.35027C11.035 1.12036 12.503 1 14 1C15.497 1 16.965 1.12036 18.3965 1.35027C23.1351 2.11135 26.8886 5.86489 27.6497 10.6035C27.8796 12.0349 28 13.5029 28 15Z" fill="url(#paint0_radial_3875_11926)"/>
<path d="M27.9999 15C27.9999 16.4971 27.8795 17.9651 27.6496 19.3965C26.8885 24.1351 23.135 27.8886 18.3964 28.6497C16.9649 28.8796 15.497 29 13.9999 29C12.5029 29 11.0349 28.8796 9.60349 28.6497C4.86484 27.8886 1.1113 24.1351 0.350223 19.3965C0.120316 17.965 0 16.4971 0 15C0 13.503 0.120316 12.0349 0.350223 10.6034C1.11135 5.86489 4.86489 2.11125 9.60349 1.35022C11.035 1.12032 12.5029 1 13.9999 1C15.497 1 16.965 1.12032 18.3964 1.35022C23.135 2.11125 26.8885 5.86489 27.6496 10.6034C27.8795 12.0349 27.9999 13.5029 27.9999 15Z" fill="url(#paint1_radial_3875_11926)"/>
<g clip-path="url(#clip0_3875_11926)">
<path fill-rule="evenodd" clip-rule="evenodd" d="M21.6047 13.5524C21.8188 13.4941 22 13.2904 22 13.0686V10.75C22 9.92157 21.3284 9.25 20.5 9.25H18.5V11C18.5 11.2761 18.2761 11.5 18 11.5C17.7239 11.5 17.5 11.2761 17.5 11V9.25H7.50001C6.67158 9.25 6 9.92157 6 10.75V13.0686C6 13.2904 6.18121 13.4941 6.3953 13.5524C7.03199 13.7257 7.49995 14.3082 7.49995 14.9997C7.49995 15.6913 7.03184 16.2737 6.39499 16.4471C6.18109 16.5054 6 16.7091 6 16.9308V19.25C6 20.0784 6.67157 20.75 7.50001 20.75H17.5V19C17.5 18.7239 17.7239 18.5 18 18.5C18.2761 18.5 18.5 18.7239 18.5 19V20.75H20.5C21.3284 20.75 22 20.0784 22 19.25V16.9308C22 16.7091 21.8189 16.5055 21.605 16.4472C20.9682 16.2737 20.5 15.6913 20.5 14.9997C20.5 14.3082 20.968 13.7257 21.6047 13.5524ZM15.3542 14.7686L14.5305 15.5713C14.4127 15.6863 14.3589 15.8518 14.3867 16.0139L14.5812 17.1476C14.6372 17.4744 14.2943 17.7236 14.0008 17.5693L12.9827 17.0339C12.837 16.9575 12.663 16.9575 12.5173 17.0339L11.4992 17.5693C11.2057 17.7236 10.8628 17.4744 10.9188 17.1476L11.1133 16.0139C11.1411 15.8518 11.0873 15.6863 10.9695 15.5713L10.1458 14.7686C9.90838 14.5371 10.0394 14.1338 10.3675 14.0862L11.5058 13.9208C11.6686 13.8972 11.8094 13.7949 11.8823 13.6472L12.3913 12.6157C12.538 12.3186 12.962 12.3186 13.1087 12.6157L13.6178 13.6472C13.6906 13.7949 13.8314 13.8972 13.9942 13.9208L15.1325 14.0862C15.4606 14.1338 15.5916 14.5371 15.3542 14.7686ZM18.5 16.4997C18.5 16.7759 18.2761 17 18 17C17.7239 17 17.5 16.7761 17.5 16.5V13.4998C17.5 13.2236 17.7239 12.9998 18 12.9998C18.2761 12.9998 18.5 13.2236 18.5 13.4998V16.4997Z" fill="white"/>
</g>
<defs>
<radialGradient id="paint0_radial_3875_11926" cx="0" cy="0" r="1" gradientUnits="userSpaceOnUse" gradientTransform="translate(14 13.3731) scale(18.8757 15.7759)">
<stop offset="0.82" stop-color="#0B5CFF" stop-opacity="0"/>
<stop offset="0.98" stop-color="#003CB3"/>
</radialGradient>
<radialGradient id="paint1_radial_3875_11926" cx="0" cy="0" r="1" gradientUnits="userSpaceOnUse" gradientTransform="translate(13.9999 16.6211) scale(18.8689 15.7702)">
<stop offset="0.8" stop-color="#0B5CFF" stop-opacity="0"/>
<stop offset="1" stop-color="#71A5F1"/>
</radialGradient>
<clipPath id="clip0_3875_11926">
<rect width="18" height="18" fill="white" transform="translate(5 6)"/>
</clipPath>
</defs>
</svg>
