<svg width="28" height="29" viewBox="0 0 28 29" fill="none" xmlns="http://www.w3.org/2000/svg">
<path d="M28 15C28 16.4971 27.8796 17.9651 27.6497 19.3965C26.8886 24.1351 23.1351 27.8886 18.3965 28.6497C16.965 28.8796 15.497 29 14 29C12.503 29 11.035 28.8796 9.60355 28.6497C4.86494 27.8886 1.11135 24.1351 0.350273 19.3965C0.120366 17.9651 0 16.4971 0 15C0 13.5029 0.120366 12.0349 0.350273 10.6035C1.11135 5.86489 4.86494 2.11135 9.60355 1.35027C11.035 1.12036 12.503 1 14 1C15.497 1 16.965 1.12036 18.3965 1.35027C23.1351 2.11135 26.8886 5.86489 27.6497 10.6035C27.8796 12.0349 28 13.5029 28 15Z" fill="#0B5CFF"/>
<path d="M28 15C28 16.4971 27.8796 17.9651 27.6497 19.3965C26.8886 24.1351 23.1351 27.8886 18.3965 28.6497C16.965 28.8796 15.497 29 14 29C12.503 29 11.035 28.8796 9.60355 28.6497C4.86494 27.8886 1.11135 24.1351 0.350273 19.3965C0.120366 17.9651 0 16.4971 0 15C0 13.5029 0.120366 12.0349 0.350273 10.6035C1.11135 5.86489 4.86494 2.11135 9.60355 1.35027C11.035 1.12036 12.503 1 14 1C15.497 1 16.965 1.12036 18.3965 1.35027C23.1351 2.11135 26.8886 5.86489 27.6497 10.6035C27.8796 12.0349 28 13.5029 28 15Z" fill="url(#paint0_radial_3875_11677)"/>
<path d="M27.9999 15C27.9999 16.4971 27.8795 17.9651 27.6496 19.3965C26.8885 24.1351 23.135 27.8886 18.3964 28.6497C16.9649 28.8796 15.497 29 13.9999 29C12.5029 29 11.0349 28.8796 9.60349 28.6497C4.86484 27.8886 1.1113 24.1351 0.350223 19.3965C0.120316 17.965 0 16.4971 0 15C0 13.503 0.120316 12.0349 0.350223 10.6034C1.11135 5.86489 4.86489 2.11125 9.60349 1.35022C11.035 1.12032 12.5029 1 13.9999 1C15.497 1 16.965 1.12032 18.3964 1.35022C23.135 2.11125 26.8885 5.86489 27.6496 10.6034C27.8795 12.0349 27.9999 13.5029 27.9999 15Z" fill="url(#paint1_radial_3875_11677)"/>
<g clip-path="url(#clip0_3875_11677)">
<path d="M15.045 19.25H19.75V9.5C19.75 8.25732 18.7427 7.25 17.5 7.25H10.25C9.09296 7.25 8.15106 8.12659 8.02521 9.25H8.75C9.02637 9.25 9.25 9.47363 9.25 9.75C9.25 10.0264 9.02637 10.25 8.75 10.25H7.5C7.22363 10.25 7 10.4736 7 10.75C7 11.0264 7.22363 11.25 7.5 11.25H8.75C9.02637 11.25 9.25 11.4736 9.25 11.75C9.25 12.0264 9.02637 12.25 8.75 12.25H7.5C7.22363 12.25 7 12.4736 7 12.75C7 13.0264 7.22363 13.25 7.5 13.25H8.75C9.02637 13.25 9.25 13.4736 9.25 13.75C9.25 14.0264 9.02637 14.25 8.75 14.25H7.5C7.22363 14.25 7 14.4736 7 14.75C7 15.0264 7.22363 15.25 7.5 15.25H8.75C9.02637 15.25 9.25 15.4736 9.25 15.75C9.25 16.0264 9.02637 16.25 8.75 16.25H7.5C7.22363 16.25 7 16.4736 7 16.75C7 17.0264 7.22363 17.25 7.5 17.25H8.75C9.02637 17.25 9.25 17.4736 9.25 17.75C9.25 18.0264 9.02637 18.25 8.75 18.25H7.5C7.22363 18.25 7 18.4736 7 18.75C7 19.0264 7.22363 19.25 7.5 19.25H8.75C9.02637 19.25 9.25 19.4736 9.25 19.75C9.25 20.0264 9.02637 20.25 8.75 20.25H8.02521C8.15106 21.3734 9.09296 22.25 10.25 22.25H11.5743C11.527 22.0902 11.5 21.9227 11.5 21.7498C11.5001 21.0826 11.8707 20.4829 12.4674 20.1847L13.7036 19.5665C14.1179 19.3595 14.5818 19.25 15.045 19.25ZM12.25 10.25H16.25C16.5264 10.25 16.75 10.4736 16.75 10.75C16.75 11.0264 16.5264 11.25 16.25 11.25H12.25C11.9736 11.25 11.75 11.0264 11.75 10.75C11.75 10.4736 11.9736 10.25 12.25 10.25ZM12.25 12.75H16.25C16.5264 12.75 16.75 12.9736 16.75 13.25C16.75 13.5264 16.5264 13.75 16.25 13.75H12.25C11.9736 13.75 11.75 13.5264 11.75 13.25C11.75 12.9736 11.9736 12.75 12.25 12.75ZM20.5 20.25H15.045C14.7345 20.25 14.4283 20.3223 14.1506 20.4611L12.9146 21.0791C12.3618 21.3555 12.3618 22.1443 12.9145 22.4208L14.1506 23.0388C14.4283 23.1777 14.7345 23.25 15.0451 23.25H20.5C21.0523 23.25 21.5 22.8022 21.5 22.25V21.25C21.5 20.6977 21.0523 20.25 20.5 20.25ZM12.25 16.25C11.9736 16.25 11.75 16.0264 11.75 15.75C11.75 15.4736 11.9736 15.25 12.25 15.25H14.25C14.5264 15.25 14.75 15.4736 14.75 15.75C14.75 16.0264 14.5264 16.25 14.25 16.25H12.25Z" fill="white"/>
</g>
<defs>
<radialGradient id="paint0_radial_3875_11677" cx="0" cy="0" r="1" gradientUnits="userSpaceOnUse" gradientTransform="translate(14 13.3731) scale(18.8757 15.7759)">
<stop offset="0.82" stop-color="#0B5CFF" stop-opacity="0"/>
<stop offset="0.98" stop-color="#003CB3"/>
</radialGradient>
<radialGradient id="paint1_radial_3875_11677" cx="0" cy="0" r="1" gradientUnits="userSpaceOnUse" gradientTransform="translate(13.9999 16.6211) scale(18.8689 15.7702)">
<stop offset="0.8" stop-color="#0B5CFF" stop-opacity="0"/>
<stop offset="1" stop-color="#71A5F1"/>
</radialGradient>
<clipPath id="clip0_3875_11677">
<rect width="18" height="18" fill="white" transform="translate(5 6)"/>
</clipPath>
</defs>
</svg>
