<svg width="28" height="29" viewBox="0 0 28 29" fill="none" xmlns="http://www.w3.org/2000/svg">
<path d="M28 15C28 16.4971 27.8796 17.9651 27.6497 19.3965C26.8886 24.1351 23.1351 27.8886 18.3965 28.6497C16.965 28.8796 15.497 29 14 29C12.503 29 11.035 28.8796 9.60355 28.6497C4.86494 27.8886 1.11135 24.1351 0.350273 19.3965C0.120366 17.9651 0 16.4971 0 15C0 13.5029 0.120366 12.0349 0.350273 10.6035C1.11135 5.86489 4.86494 2.11135 9.60355 1.35027C11.035 1.12036 12.503 1 14 1C15.497 1 16.965 1.12036 18.3965 1.35027C23.1351 2.11135 26.8886 5.86489 27.6497 10.6035C27.8796 12.0349 28 13.5029 28 15Z" fill="#0B5CFF"/>
<path d="M28 15C28 16.4971 27.8796 17.9651 27.6497 19.3965C26.8886 24.1351 23.1351 27.8886 18.3965 28.6497C16.965 28.8796 15.497 29 14 29C12.503 29 11.035 28.8796 9.60355 28.6497C4.86494 27.8886 1.11135 24.1351 0.350273 19.3965C0.120366 17.9651 0 16.4971 0 15C0 13.5029 0.120366 12.0349 0.350273 10.6035C1.11135 5.86489 4.86494 2.11135 9.60355 1.35027C11.035 1.12036 12.503 1 14 1C15.497 1 16.965 1.12036 18.3965 1.35027C23.1351 2.11135 26.8886 5.86489 27.6497 10.6035C27.8796 12.0349 28 13.5029 28 15Z" fill="url(#paint0_radial_3875_11781)"/>
<path d="M27.9999 15C27.9999 16.4971 27.8795 17.9651 27.6496 19.3965C26.8885 24.1351 23.135 27.8886 18.3964 28.6497C16.9649 28.8796 15.497 29 13.9999 29C12.5029 29 11.0349 28.8796 9.60349 28.6497C4.86484 27.8886 1.1113 24.1351 0.350223 19.3965C0.120316 17.965 0 16.4971 0 15C0 13.503 0.120316 12.0349 0.350223 10.6034C1.11135 5.86489 4.86489 2.11125 9.60349 1.35022C11.035 1.12032 12.5029 1 13.9999 1C15.497 1 16.965 1.12032 18.3964 1.35022C23.135 2.11125 26.8885 5.86489 27.6496 10.6034C27.8795 12.0349 27.9999 13.5029 27.9999 15Z" fill="url(#paint1_radial_3875_11781)"/>
<path d="M20 9.49995H16.25V10.4999C16.25 11.327 15.5772 12 14.75 12H13.25C12.4229 12 11.75 11.327 11.75 10.4999V9.49995H8C6.89539 9.49995 6 10.3954 6 11.5V18.5C6 19.6046 6.89539 20.5 8 20.5H20C21.1046 20.5 22 19.6046 22 18.5V11.5C22 10.3954 21.1046 9.49995 20 9.49995ZM10.5 12.75C11.2594 12.75 11.8745 13.3657 11.8745 14.1249C11.8745 14.8844 11.2594 15.5 10.5 15.5C9.7406 15.5 9.12451 14.8844 9.12451 14.1249C9.12451 13.3657 9.7406 12.75 10.5 12.75ZM14.75 7.5H13.25C12.9739 7.5 12.75 7.72382 12.75 8V10.4999C12.75 10.7761 12.9739 10.9999 13.25 10.9999H14.75C15.0261 10.9999 15.25 10.7761 15.25 10.4999V8C15.25 7.72381 15.0261 7.5 14.75 7.5ZM12.286 18.25H8.71399C8.36902 18.25 8 17.9422 8 17.5624C8 16.8032 9.07117 16.1875 10.5001 16.1875C11.9291 16.1875 13.0001 16.8032 13.0001 17.5624C13.0001 17.9422 12.6311 18.25 12.286 18.25ZM18.0004 17.9999H15.5004C15.224 17.9999 15.0004 17.7762 15.0004 17.4999C15.0004 17.2235 15.224 16.9999 15.5004 16.9999H18.0004C18.2767 16.9999 18.5004 17.2235 18.5004 17.4999C18.5004 17.7762 18.2767 17.9999 18.0004 17.9999ZM19.5004 15.9999H15.5004C15.224 15.9999 15.0004 15.7762 15.0004 15.4999C15.0004 15.2235 15.224 14.9999 15.5004 14.9999H19.5004C19.7767 14.9999 20.0004 15.2235 20.0004 15.4999C20.0004 15.7762 19.7767 15.9999 19.5004 15.9999ZM19.5004 13.9998H15.5004C15.224 13.9998 15.0004 13.7762 15.0004 13.4998C15.0004 13.2235 15.224 12.9998 15.5004 12.9998H19.5004C19.7767 12.9998 20.0004 13.2235 20.0004 13.4998C20.0004 13.7762 19.7767 13.9998 19.5004 13.9998Z" fill="white"/>
<defs>
<radialGradient id="paint0_radial_3875_11781" cx="0" cy="0" r="1" gradientUnits="userSpaceOnUse" gradientTransform="translate(14 13.3731) scale(18.8757 15.7759)">
<stop offset="0.82" stop-color="#0B5CFF" stop-opacity="0"/>
<stop offset="0.98" stop-color="#003CB3"/>
</radialGradient>
<radialGradient id="paint1_radial_3875_11781" cx="0" cy="0" r="1" gradientUnits="userSpaceOnUse" gradientTransform="translate(13.9999 16.6211) scale(18.8689 15.7702)">
<stop offset="0.8" stop-color="#0B5CFF" stop-opacity="0"/>
<stop offset="1" stop-color="#71A5F1"/>
</radialGradient>
</defs>
</svg>
