<svg width="385" height="213" viewBox="0 0 385 213" fill="none" xmlns="http://www.w3.org/2000/svg">
  <path
    d="M299.706 20.8147C237.039 -26.1558 216.833 18.456 162.607 37.0094C119.359 51.7949 57.1432 32.7922 21.2519 67.4585C-10.025 97.6524 -1.86048 162.492 20.9961 194.657C48.8559 233.836 99.5006 238.564 144.068 219.725C178.026 205.348 200.851 148.963 238.666 150.688C282.18 152.73 284.185 207.043 329.632 204.03C447.906 196.178 343.23 53.4184 299.706 20.8147Z"
    fill="#EDEDF4" fill-opacity="0.1" />
  <g opacity="0.4">
    <path
      d="M192.473 57.9385H133.141C132.304 57.9385 131.626 58.6168 131.626 59.4536V84.2001C131.626 85.0369 132.304 85.7152 133.141 85.7152H192.473C193.309 85.7152 193.988 85.0369 193.988 84.2001V59.4536C193.988 58.6168 193.309 57.9385 192.473 57.9385Z"
      fill="#EDEDF4" />
    <path opacity="0.6"
      d="M192.473 57.9385H133.141C132.304 57.9385 131.626 58.6168 131.626 59.4536V84.2001C131.626 85.0369 132.304 85.7152 133.141 85.7152H192.473C193.309 85.7152 193.988 85.0369 193.988 84.2001V59.4536C193.988 58.6168 193.309 57.9385 192.473 57.9385Z"
      fill="#EDEDF4" />
    <path opacity="0.1"
      d="M192.464 57.9385H133.113C132.711 57.9385 132.326 58.0981 132.041 58.3822C131.757 58.6664 131.598 59.0517 131.598 59.4536V67.3884L162.482 73.4682C162.671 73.5069 162.866 73.5069 163.055 73.4682L193.95 67.3884V59.4536C193.95 59.0567 193.794 58.6757 193.516 58.3924C193.238 58.1091 192.86 57.9461 192.464 57.9385Z"
      fill="black" />
    <path
      d="M193.766 47.7797H175.643V44.7398C175.641 43.4836 175.141 42.2795 174.252 41.3913C173.364 40.503 172.16 40.0028 170.904 40.0002H154.714C153.457 40.0028 152.253 40.503 151.365 41.3913C150.477 42.2795 149.977 43.4836 149.974 44.7398V47.7797H131.861C131.464 47.7797 131.084 47.9373 130.803 48.2177C130.523 48.4982 130.365 48.8787 130.365 49.2753V64.2418C130.365 64.5878 130.485 64.9231 130.705 65.1905C130.925 65.4579 131.23 65.6409 131.57 65.7083L162.522 71.759C162.711 71.7977 162.906 71.7977 163.095 71.759L194.048 65.6695C194.384 65.6057 194.688 65.4296 194.91 65.1702C195.132 64.9107 195.26 64.5833 195.272 64.2418V49.2753C195.272 49.0781 195.232 48.8828 195.157 48.7007C195.081 48.5186 194.97 48.3533 194.83 48.2143C194.69 48.0753 194.524 47.9653 194.341 47.8907C194.159 47.8161 193.963 47.7784 193.766 47.7797ZM153.577 44.7398C153.577 44.4375 153.697 44.1475 153.909 43.9328C154.122 43.7182 154.411 43.5963 154.714 43.5937H170.904C171.204 43.5963 171.492 43.7168 171.704 43.9294C171.917 44.1419 172.038 44.4295 172.04 44.7301V47.77H153.587L153.577 44.7398Z"
      fill="#EDEDF4" />
    <path opacity="0.6"
      d="M193.766 47.7797H175.643V44.7398C175.641 43.4836 175.141 42.2795 174.252 41.3913C173.364 40.503 172.16 40.0028 170.904 40.0002H154.714C153.457 40.0028 152.253 40.503 151.365 41.3913C150.477 42.2795 149.977 43.4836 149.974 44.7398V47.7797H131.861C131.464 47.7797 131.084 47.9373 130.803 48.2177C130.523 48.4982 130.365 48.8787 130.365 49.2753V64.2418C130.365 64.5878 130.485 64.9231 130.705 65.1905C130.925 65.4579 131.23 65.6409 131.57 65.7083L162.522 71.759C162.711 71.7977 162.906 71.7977 163.095 71.759L194.048 65.6695C194.384 65.6057 194.688 65.4296 194.91 65.1702C195.132 64.9107 195.26 64.5833 195.272 64.2418V49.2753C195.272 49.0781 195.232 48.8828 195.157 48.7007C195.081 48.5186 194.97 48.3533 194.83 48.2143C194.69 48.0753 194.524 47.9653 194.341 47.8907C194.159 47.8161 193.963 47.7784 193.766 47.7797ZM153.577 44.7398C153.577 44.4375 153.697 44.1475 153.909 43.9328C154.122 43.7182 154.411 43.5963 154.714 43.5937H170.904C171.204 43.5963 171.492 43.7168 171.704 43.9294C171.917 44.1419 172.038 44.4295 172.04 44.7301V47.77H153.587L153.577 44.7398Z"
      fill="#EDEDF4" />
    <path
      d="M166.007 67.7186H159.616C158.822 67.7186 158.179 68.3622 158.179 69.156V73.1963C158.179 73.9901 158.822 74.6337 159.616 74.6337H166.007C166.801 74.6337 167.444 73.9901 167.444 73.1963V69.156C167.444 68.3622 166.801 67.7186 166.007 67.7186Z"
      fill="#EDEDF4" />
    <path opacity="0.3"
      d="M166.007 67.7186H159.616C158.822 67.7186 158.179 68.3622 158.179 69.156V73.1963C158.179 73.9901 158.822 74.6337 159.616 74.6337H166.007C166.801 74.6337 167.444 73.9901 167.444 73.1963V69.156C167.444 68.3622 166.801 67.7186 166.007 67.7186Z"
      fill="#263238" />
    <path
      d="M100.054 57.9385H40.7221C39.8854 57.9385 39.207 58.6168 39.207 59.4536V84.2001C39.207 85.0369 39.8854 85.7152 40.7221 85.7152H100.054C100.89 85.7152 101.569 85.0369 101.569 84.2001V59.4536C101.569 58.6168 100.89 57.9385 100.054 57.9385Z"
      fill="#EDEDF4" />
    <path opacity="0.6"
      d="M100.054 57.9385H40.7221C39.8854 57.9385 39.207 58.6168 39.207 59.4536V84.2001C39.207 85.0369 39.8854 85.7152 40.7221 85.7152H100.054C100.89 85.7152 101.569 85.0369 101.569 84.2001V59.4536C101.569 58.6168 100.89 57.9385 100.054 57.9385Z"
      fill="#EDEDF4" />
    <path opacity="0.1"
      d="M100.092 57.9385H40.7221C40.3203 57.9385 39.9349 58.0981 39.6508 58.3822C39.3667 58.6664 39.207 59.0517 39.207 59.4536V67.3884L70.0917 73.4682C70.284 73.5072 70.4821 73.5072 70.6744 73.4682L101.569 67.3884V59.4536C101.569 59.0584 101.415 58.6788 101.139 58.3957C100.863 58.1127 100.488 57.9486 100.092 57.9385Z"
      fill="black" />
    <path
      d="M101.334 47.7798H83.2116V44.7399C83.2091 43.4837 82.7089 42.2797 81.8206 41.3914C80.9323 40.5031 79.7283 40.0029 78.4721 40.0004H62.2917C61.0354 40.0029 59.8314 40.5031 58.9431 41.3914C58.0549 42.2797 57.5547 43.4837 57.5521 44.7399V47.7798H39.4293C39.0326 47.7798 38.6522 47.9374 38.3717 48.2179C38.0912 48.4984 37.9336 48.8788 37.9336 49.2755V64.2419C37.9337 64.5879 38.0538 64.9232 38.2734 65.1906C38.493 65.458 38.7985 65.641 39.1379 65.7084L70.0905 71.7591C70.2828 71.7981 70.481 71.7981 70.6732 71.7591L101.626 65.6696C101.965 65.6022 102.271 65.4192 102.49 65.1517C102.71 64.8843 102.83 64.5491 102.83 64.203V49.2755C102.83 48.8788 102.673 48.4984 102.392 48.2179C102.112 47.9374 101.731 47.7798 101.334 47.7798ZM61.1456 44.7399C61.1482 44.4367 61.2697 44.1467 61.4841 43.9323C61.6985 43.718 61.9885 43.5964 62.2917 43.5939H78.4721C78.7736 43.5964 79.0622 43.7166 79.2763 43.9289C79.4904 44.1412 79.6131 44.4287 79.6181 44.7302V47.7701H61.165L61.1456 44.7399Z"
      fill="#EDEDF4" />
    <path
      d="M73.577 67.7186H67.1864C66.3926 67.7186 65.749 68.3622 65.749 69.156V73.1963C65.749 73.9901 66.3926 74.6337 67.1864 74.6337H73.577C74.3709 74.6337 75.0144 73.9901 75.0144 73.1963V69.156C75.0144 68.3622 74.3709 67.7186 73.577 67.7186Z"
      fill="#EDEDF4" />
    <path opacity="0.3"
      d="M73.577 67.7186H67.1864C66.3926 67.7186 65.749 68.3622 65.749 69.156V73.1963C65.749 73.9901 66.3926 74.6337 67.1864 74.6337H73.577C74.3709 74.6337 75.0144 73.9901 75.0144 73.1963V69.156C75.0144 68.3622 74.3709 67.7186 73.577 67.7186Z"
      fill="#263238" />
    <path
      d="M92.3208 175.047H40.7201C40.3157 175.047 39.9279 174.887 39.6419 174.601C39.356 174.315 39.1953 173.927 39.1953 173.523V148.786C39.1968 148.582 39.2398 148.38 39.3216 148.193C39.3611 148.106 39.4065 148.022 39.4575 147.941C39.5116 147.858 39.577 147.782 39.6518 147.717C39.9347 147.433 40.3189 147.272 40.7201 147.271H89.5625C89.1562 150.66 89.023 154.077 89.1643 157.488C89.1643 158.041 89.1643 158.595 89.2517 159.139C89.3197 160.159 89.3974 161.188 89.5139 162.208C90.0138 166.571 90.9542 170.873 92.3208 175.047Z"
      fill="#EDEDF4" />
    <path opacity="0.6"
      d="M92.3208 175.047H40.7201C40.3157 175.047 39.9279 174.887 39.6419 174.601C39.356 174.315 39.1953 173.927 39.1953 173.523V148.786C39.1968 148.582 39.2398 148.38 39.3216 148.193C39.3611 148.106 39.4065 148.022 39.4575 147.941C39.5116 147.858 39.577 147.782 39.6518 147.717C39.9347 147.433 40.3189 147.272 40.7201 147.271H89.5625C89.1562 150.66 89.023 154.077 89.1643 157.488C89.1643 158.041 89.1643 158.595 89.2517 159.139C89.3197 160.159 89.3974 161.188 89.5139 162.208C90.0138 166.571 90.9542 170.873 92.3208 175.047Z"
      fill="#EDEDF4" />
    <path opacity="0.1"
      d="M89.5645 147.271C89.1582 150.66 89.025 154.077 89.1663 157.488C89.1663 158.041 89.1663 158.595 89.2537 159.139L75.0157 161.936L70.6647 162.791C70.4767 162.839 70.2796 162.839 70.0917 162.791L65.7503 161.946L39.207 156.721V148.776C39.2101 148.576 39.2496 148.379 39.3236 148.193C39.3631 148.106 39.4085 148.022 39.4595 147.941C39.5136 147.858 39.579 147.782 39.6538 147.717C39.9367 147.433 40.3209 147.272 40.7221 147.271H89.5645Z"
      fill="black" />
    <path
      d="M91.5922 137.112H83.2204V134.072C83.2152 132.815 82.7129 131.611 81.8231 130.723C80.9333 129.835 79.7282 129.335 78.4711 129.332H62.2907C61.0337 129.332 59.8282 129.832 58.9393 130.721C58.0505 131.609 57.5512 132.815 57.5512 134.072V137.112H39.4283C39.2319 137.112 39.0374 137.151 38.8559 137.226C38.6745 137.301 38.5096 137.411 38.3707 137.55C38.2318 137.689 38.1216 137.854 38.0465 138.035C37.9713 138.217 37.9326 138.411 37.9326 138.608V153.564C37.9328 153.913 38.0539 154.25 38.2753 154.52C38.4967 154.789 38.8047 154.973 39.1466 155.04H39.2049L65.7482 160.275L70.0895 161.12C70.2786 161.159 70.4735 161.159 70.6626 161.12L75.0136 160.266L89.1642 157.478C89.0229 154.067 89.1561 150.651 89.5624 147.261C89.9657 143.829 90.6446 140.435 91.5922 137.112ZM61.1447 134.072C61.1497 133.77 61.2724 133.483 61.4865 133.271C61.7006 133.058 61.9892 132.938 62.2907 132.936H78.4711C78.7717 132.938 79.0593 133.059 79.2718 133.271C79.4844 133.484 79.6049 133.771 79.6074 134.072V137.112H61.1544L61.1447 134.072Z"
      fill="#EDEDF4" />
    <path opacity="0.6"
      d="M91.5922 137.112H83.2204V134.072C83.2152 132.815 82.7129 131.611 81.8231 130.723C80.9333 129.835 79.7282 129.335 78.4711 129.332H62.2907C61.0337 129.332 59.8282 129.832 58.9393 130.721C58.0505 131.609 57.5512 132.815 57.5512 134.072V137.112H39.4283C39.2319 137.112 39.0374 137.151 38.8559 137.226C38.6745 137.301 38.5096 137.411 38.3707 137.55C38.2318 137.689 38.1216 137.854 38.0465 138.035C37.9713 138.217 37.9326 138.411 37.9326 138.608V153.564C37.9328 153.913 38.0539 154.25 38.2753 154.52C38.4967 154.789 38.8047 154.973 39.1466 155.04H39.2049L65.7482 160.275L70.0895 161.12C70.2786 161.159 70.4735 161.159 70.6626 161.12L75.0136 160.266L89.1642 157.478C89.0229 154.067 89.1561 150.651 89.5624 147.261C89.9657 143.829 90.6446 140.435 91.5922 137.112ZM61.1447 134.072C61.1497 133.77 61.2724 133.483 61.4865 133.271C61.7006 133.058 61.9892 132.938 62.2907 132.936H78.4711C78.7717 132.938 79.0593 133.059 79.2718 133.271C79.4844 133.484 79.6049 133.771 79.6074 134.072V137.112H61.1544L61.1447 134.072Z"
      fill="#EDEDF4" />
    <path
      d="M73.577 157.041H67.1864C66.3926 157.041 65.749 157.685 65.749 158.479V162.519C65.749 163.313 66.3926 163.956 67.1864 163.956H73.577C74.3709 163.956 75.0144 163.313 75.0144 162.519V158.479C75.0144 157.685 74.3709 157.041 73.577 157.041Z"
      fill="#EDEDF4" />
    <path opacity="0.3"
      d="M73.577 157.041H67.1864C66.3926 157.041 65.749 157.685 65.749 158.479V162.519C65.749 163.313 66.3926 163.956 67.1864 163.956H73.577C74.3709 163.956 75.0144 163.313 75.0144 162.519V158.479C75.0144 157.685 74.3709 157.041 73.577 157.041Z"
      fill="#263238" />
    <path
      d="M225.563 85.7053L284.894 85.7053C285.731 85.7053 286.409 85.027 286.409 84.1902V59.4437C286.409 58.6069 285.731 57.9286 284.894 57.9286L225.563 57.9286C224.726 57.9286 224.047 58.6069 224.047 59.4437V84.1902C224.047 85.027 224.726 85.7053 225.563 85.7053Z"
      fill="#EDEDF4" />
    <path opacity="0.6"
      d="M225.563 85.7053L284.894 85.7053C285.731 85.7053 286.409 85.027 286.409 84.1902V59.4437C286.409 58.6069 285.731 57.9286 284.894 57.9286L225.563 57.9286C224.726 57.9286 224.047 58.6069 224.047 59.4437V84.1902C224.047 85.027 224.726 85.7053 225.563 85.7053Z"
      fill="#EDEDF4" />
    <path opacity="0.1"
      d="M225.571 57.9385H284.893C285.294 57.9385 285.68 58.0981 285.964 58.3822C286.248 58.6664 286.408 59.0517 286.408 59.4536V67.3884L255.484 73.4682C255.295 73.5069 255.1 73.5069 254.911 73.4682L224.056 67.3884V59.4536C224.056 59.0517 224.215 58.6664 224.499 58.3822C224.784 58.0981 225.169 57.9385 225.571 57.9385Z"
      fill="black" />
    <path
      d="M224.281 47.7795H242.403V44.7396C242.406 43.4834 242.906 42.2794 243.794 41.3911C244.683 40.5028 245.887 40.0027 247.143 40.0001H263.333C263.958 39.9963 264.578 40.1159 265.157 40.3523C265.736 40.5886 266.263 40.937 266.707 41.3773C267.151 41.8177 267.503 42.3414 267.744 42.9184C267.986 43.4954 268.11 44.1143 268.112 44.7396V47.7795H286.225C286.621 47.7795 287.002 47.9371 287.282 48.2176C287.563 48.4981 287.72 48.8785 287.72 49.2752V64.2416C287.72 64.5876 287.6 64.9229 287.381 65.1903C287.161 65.4577 286.855 65.6407 286.516 65.7081L255.486 71.7588C255.293 71.7978 255.095 71.7978 254.903 71.7588L223.95 65.6693C223.611 65.6019 223.305 65.4189 223.086 65.1515C222.866 64.8841 222.746 64.5488 222.746 64.2028V49.2752C222.746 49.0755 222.786 48.8778 222.864 48.6937C222.941 48.5097 223.055 48.343 223.198 48.2036C223.341 48.0642 223.51 47.9549 223.696 47.882C223.882 47.8092 224.081 47.7743 224.281 47.7795ZM264.469 44.7396C264.469 44.4373 264.35 44.1473 264.137 43.9327C263.924 43.718 263.635 43.5961 263.333 43.5936H247.143C246.842 43.5961 246.553 43.7163 246.339 43.9286C246.125 44.1409 246.002 44.4284 245.997 44.7299V47.7698H264.45L264.469 44.7396Z"
      fill="#EDEDF4" />
    <path opacity="0.6"
      d="M224.281 47.7795H242.403V44.7396C242.406 43.4834 242.906 42.2794 243.794 41.3911C244.683 40.5028 245.887 40.0027 247.143 40.0001H263.333C263.958 39.9963 264.578 40.1159 265.157 40.3523C265.736 40.5886 266.263 40.937 266.707 41.3773C267.151 41.8177 267.503 42.3414 267.744 42.9184C267.986 43.4954 268.11 44.1143 268.112 44.7396V47.7795H286.225C286.621 47.7795 287.002 47.9371 287.282 48.2176C287.563 48.4981 287.72 48.8785 287.72 49.2752V64.2416C287.72 64.5876 287.6 64.9229 287.381 65.1903C287.161 65.4577 286.855 65.6407 286.516 65.7081L255.486 71.7588C255.293 71.7978 255.095 71.7978 254.903 71.7588L223.95 65.6693C223.611 65.6019 223.305 65.4189 223.086 65.1515C222.866 64.8841 222.746 64.5488 222.746 64.2028V49.2752C222.746 49.0755 222.786 48.8778 222.864 48.6937C222.941 48.5097 223.055 48.343 223.198 48.2036C223.341 48.0642 223.51 47.9549 223.696 47.882C223.882 47.8092 224.081 47.7743 224.281 47.7795ZM264.469 44.7396C264.469 44.4373 264.35 44.1473 264.137 43.9327C263.924 43.718 263.635 43.5961 263.333 43.5936H247.143C246.842 43.5961 246.553 43.7163 246.339 43.9286C246.125 44.1409 246.002 44.4284 245.997 44.7299V47.7698H264.45L264.469 44.7396Z"
      fill="#EDEDF4" />
    <path
      d="M252.037 74.6239H258.428C259.222 74.6239 259.865 73.9804 259.865 73.1865V69.1462C259.865 68.3524 259.222 67.7088 258.428 67.7088H252.037C251.243 67.7088 250.6 68.3524 250.6 69.1462V73.1865C250.6 73.9804 251.243 74.6239 252.037 74.6239Z"
      fill="#EDEDF4" />
    <path opacity="0.3"
      d="M252.037 74.6239H258.428C259.222 74.6239 259.865 73.9804 259.865 73.1865V69.1462C259.865 68.3524 259.222 67.7088 258.428 67.7088H252.037C251.243 67.7088 250.6 68.3524 250.6 69.1462V73.1865C250.6 73.9804 251.243 74.6239 252.037 74.6239Z"
      fill="#263238" />
    <path
      d="M233.331 175.047H284.903C285.305 175.045 285.691 174.883 285.974 174.597C286.258 174.312 286.418 173.925 286.418 173.523V148.786C286.416 148.582 286.373 148.38 286.291 148.193C286.256 148.104 286.21 148.02 286.155 147.941C286.101 147.858 286.036 147.782 285.961 147.717C285.822 147.576 285.655 147.463 285.472 147.386C285.289 147.31 285.092 147.27 284.893 147.271H236.06C236.466 150.66 236.6 154.077 236.458 157.488C236.458 158.041 236.458 158.595 236.371 159.139C236.313 160.159 236.225 161.188 236.109 162.208C235.618 166.57 234.688 170.872 233.331 175.047Z"
      fill="#EDEDF4" />
    <path opacity="0.6"
      d="M233.331 175.047H284.903C285.305 175.045 285.691 174.883 285.974 174.597C286.258 174.312 286.418 173.925 286.418 173.523V148.786C286.416 148.582 286.373 148.38 286.291 148.193C286.256 148.104 286.21 148.02 286.155 147.941C286.101 147.858 286.036 147.782 285.961 147.717C285.822 147.576 285.655 147.463 285.472 147.386C285.289 147.31 285.092 147.27 284.893 147.271H236.06C236.466 150.66 236.6 154.077 236.458 157.488C236.458 158.041 236.458 158.595 236.371 159.139C236.313 160.159 236.225 161.188 236.109 162.208C235.618 166.57 234.688 170.872 233.331 175.047Z"
      fill="#EDEDF4" />
    <path opacity="0.1"
      d="M236.062 147.271C236.468 150.66 236.601 154.077 236.46 157.488C236.46 158.041 236.46 158.595 236.372 159.139L250.63 161.936L254.981 162.791C255.169 162.839 255.366 162.839 255.554 162.791L259.895 161.946L286.438 156.721V148.776C286.435 148.576 286.396 148.379 286.322 148.193C286.286 148.104 286.241 148.02 286.186 147.941C286.132 147.858 286.066 147.782 285.992 147.717C285.852 147.576 285.686 147.463 285.502 147.386C285.319 147.31 285.122 147.27 284.923 147.271H236.062Z"
      fill="black" />
    <path
      d="M234.02 137.112H242.402V134.072C242.404 132.816 242.905 131.612 243.793 130.723C244.681 129.835 245.885 129.335 247.141 129.332H263.322C264.58 129.332 265.786 129.831 266.677 130.72C267.567 131.609 268.069 132.814 268.071 134.072V137.112H286.184C286.581 137.112 286.961 137.269 287.242 137.55C287.522 137.83 287.68 138.211 287.68 138.608V153.564C287.68 153.911 287.56 154.248 287.341 154.517C287.122 154.786 286.816 154.971 286.476 155.04H286.408L259.864 160.275L255.484 161.111C255.295 161.149 255.1 161.149 254.911 161.111L250.56 160.256L236.409 157.468C236.685 150.584 235.865 143.7 233.981 137.073L234.02 137.112ZM264.468 134.072C264.463 133.77 264.34 133.483 264.126 133.271C263.912 133.058 263.623 132.938 263.322 132.936H247.141C246.841 132.938 246.553 133.059 246.341 133.271C246.128 133.484 246.008 133.771 246.005 134.072V137.112H264.458L264.468 134.072Z"
      fill="#EDEDF4" />
    <path opacity="0.6"
      d="M234.02 137.112H242.402V134.072C242.404 132.816 242.905 131.612 243.793 130.723C244.681 129.835 245.885 129.335 247.141 129.332H263.322C264.58 129.332 265.786 129.831 266.677 130.72C267.567 131.609 268.069 132.814 268.071 134.072V137.112H286.184C286.581 137.112 286.961 137.269 287.242 137.55C287.522 137.83 287.68 138.211 287.68 138.608V153.564C287.68 153.911 287.56 154.248 287.341 154.517C287.122 154.786 286.816 154.971 286.476 155.04H286.408L259.864 160.275L255.484 161.111C255.295 161.149 255.1 161.149 254.911 161.111L250.56 160.256L236.409 157.468C236.685 150.584 235.865 143.7 233.981 137.073L234.02 137.112ZM264.468 134.072C264.463 133.77 264.34 133.483 264.126 133.271C263.912 133.058 263.623 132.938 263.322 132.936H247.141C246.841 132.938 246.553 133.059 246.341 133.271C246.128 133.484 246.008 133.771 246.005 134.072V137.112H264.458L264.468 134.072Z"
      fill="#EDEDF4" />
    <path
      d="M252.037 163.966H258.428C259.222 163.966 259.865 163.323 259.865 162.529V158.488C259.865 157.695 259.222 157.051 258.428 157.051H252.037C251.243 157.051 250.6 157.695 250.6 158.488V162.529C250.6 163.323 251.243 163.966 252.037 163.966Z"
      fill="#EDEDF4" />
    <path opacity="0.3"
      d="M252.037 163.966H258.428C259.222 163.966 259.865 163.323 259.865 162.529V158.488C259.865 157.695 259.222 157.051 258.428 157.051H252.037C251.243 157.051 250.6 157.695 250.6 158.488V162.529C250.6 163.323 251.243 163.966 252.037 163.966Z"
      fill="#263238" />
  </g>
  <path
    d="M215.386 127.722H116.523C115.13 127.722 114 128.851 114 130.245V171.477C114 172.87 115.13 174 116.523 174H215.386C216.779 174 217.909 172.87 217.909 171.477V130.245C217.909 128.851 216.779 127.722 215.386 127.722Z"
    fill="#F2C94C" />
  <path
    d="M179.435 120.356H152.461C150.416 120.353 148.455 119.54 147.009 118.093C145.563 116.647 144.749 114.687 144.746 112.641V105.715C144.749 103.67 145.563 101.709 147.009 100.263C148.455 98.8168 150.416 98.003 152.461 98H179.435C181.481 98 183.443 98.8128 184.89 100.26C186.337 101.706 187.15 103.669 187.15 105.715V112.608C187.154 113.624 186.958 114.63 186.572 115.57C186.187 116.51 185.619 117.365 184.902 118.085C184.185 118.805 183.333 119.376 182.395 119.766C181.457 120.156 180.451 120.356 179.435 120.356ZM152.461 103.665C151.918 103.671 151.399 103.888 151.014 104.271C150.629 104.654 150.409 105.172 150.4 105.715V112.608C150.4 113.16 150.619 113.69 151.01 114.081C151.401 114.472 151.931 114.691 152.484 114.691H179.457C180.01 114.691 180.54 114.472 180.931 114.081C181.322 113.69 181.541 113.16 181.541 112.608V105.715C181.541 105.162 181.322 104.632 180.931 104.242C180.54 103.851 180.01 103.631 179.457 103.631L152.461 103.665Z"
    fill="#F2C94C" />
  <path opacity="0.2"
    d="M215.375 127.722H116.534C116.202 127.72 115.873 127.785 115.565 127.911C115.258 128.037 114.978 128.222 114.743 128.457C114.507 128.691 114.321 128.97 114.193 129.277C114.066 129.584 114 129.913 114 130.245V143.478L165.47 153.615C165.786 153.683 166.112 153.683 166.427 153.615L217.909 143.478V130.245C217.909 129.913 217.843 129.584 217.716 129.277C217.588 128.97 217.401 128.691 217.166 128.457C216.93 128.222 216.651 128.037 216.344 127.911C216.036 127.785 215.707 127.72 215.375 127.722Z"
    fill="black" />
  <path
    d="M217.974 140.629L166.403 150.765C166.082 150.822 165.755 150.822 165.434 150.765L113.863 140.629C113.296 140.517 112.786 140.213 112.418 139.767C112.051 139.322 111.849 138.763 111.847 138.185V113.295C111.847 112.968 111.911 112.644 112.036 112.342C112.161 112.04 112.345 111.766 112.576 111.535C112.807 111.304 113.081 111.12 113.383 110.995C113.685 110.87 114.009 110.806 114.336 110.806H217.524C217.851 110.806 218.174 110.87 218.476 110.995C218.778 111.12 219.053 111.304 219.284 111.535C219.515 111.766 219.698 112.04 219.823 112.342C219.948 112.644 220.013 112.968 220.013 113.295V138.23C220.001 138.804 219.792 139.356 219.421 139.793C219.049 140.23 218.538 140.525 217.974 140.629Z"
    fill="#F2C94C" />
  <path
    d="M171.29 144.019H160.624C159.305 144.019 158.236 145.088 158.236 146.407V153.153C158.236 154.472 159.305 155.541 160.624 155.541H171.29C172.608 155.541 173.677 154.472 173.677 153.153V146.407C173.677 145.088 172.608 144.019 171.29 144.019Z"
    fill="#FDB937" />
  <path opacity="0.4"
    d="M171.29 144.019H160.624C159.305 144.019 158.236 145.088 158.236 146.407V153.153C158.236 154.472 159.305 155.541 160.624 155.541H171.29C172.608 155.541 173.677 154.472 173.677 153.153V146.407C173.677 145.088 172.608 144.019 171.29 144.019Z"
    fill="black" />
  <path
    d="M326.287 135.799C327.403 138.1 328.229 140.276 329.2 142.549C330.171 144.821 330.88 147.084 331.638 149.405C333.174 154.112 334.308 158.94 335.027 163.838C335.125 164.449 335.173 165.11 335.241 165.78L335.338 166.751C335.338 166.926 335.338 167.052 335.338 167.256V167.888C335.371 169.36 335.244 170.832 334.959 172.277C334.478 174.789 333.793 177.258 332.91 179.659C331.252 184.222 329.184 188.627 326.733 192.819L321.8 190.73C322.897 186.302 324.004 181.786 324.839 177.425C325.248 175.336 325.536 173.225 325.704 171.102C325.761 170.235 325.742 169.364 325.646 168.499L325.539 167.888L325.403 167.111C325.296 166.596 325.228 166.081 325.102 165.557C324.133 161.27 322.881 157.052 321.353 152.931C320.615 150.823 319.799 148.725 318.983 146.618C318.167 144.51 317.264 142.393 316.429 140.451L326.287 135.799Z"
    fill="#7F3E3B" />
  <path
    d="M322.013 189.439L318.226 193.129L326.491 197.014C326.491 197.014 328.491 193.518 327.112 190.352L322.013 189.439Z"
    fill="#7F3E3B" />
  <path d="M315.176 198.636L322.149 201.492L326.49 196.975L318.225 193.129L315.176 198.636Z" fill="#7F3E3B" />
  <path
    d="M338.204 203.696C338.077 201.929 337.498 200.224 336.524 198.743C335.816 197.654 334.826 196.778 333.659 196.208L327.026 192.955C322.616 190.769 318.178 188.642 313.74 186.516C309.301 184.389 304.834 182.3 300.385 180.193C295.937 178.085 291.45 176.036 286.953 174.026C277.979 169.96 268.947 166.003 259.857 162.157C255.311 160.215 250.756 158.35 246.162 156.524C244.821 155.996 243.731 154.978 243.112 153.676C242.494 152.374 242.393 150.886 242.831 149.512C248.98 130.125 247.58 109.131 238.911 90.7317C230.241 72.3328 214.943 57.8872 196.077 50.2867C177.212 42.6861 156.171 42.4914 137.168 49.7416C118.166 56.9919 102.602 71.1519 93.5939 89.3873C84.5856 107.623 82.7971 128.588 88.5865 148.085C94.3759 167.583 107.316 184.174 124.816 194.539C142.316 204.903 163.086 208.275 182.966 203.98C202.846 199.684 220.371 188.039 232.031 171.374C232.857 170.19 234.101 169.363 235.513 169.062C236.925 168.761 238.399 169.008 239.636 169.752C243.883 172.278 248.15 174.761 252.436 177.202C261.003 182.084 269.633 186.843 278.329 191.478C282.67 193.829 287.07 196.092 291.392 198.393C295.714 200.695 300.133 202.939 304.532 205.192C308.932 207.445 313.273 209.65 317.731 211.825L324.345 215.108C325.507 215.692 326.807 215.948 328.104 215.846C329.869 215.721 331.572 215.142 333.047 214.166C334.807 213.085 336.225 211.529 337.138 209.676C338.05 207.823 338.42 205.75 338.204 203.696ZM137.775 182.213C126.485 176.642 117.1 167.848 110.808 156.943C104.516 146.038 101.599 133.512 102.426 120.949C103.253 108.386 107.787 96.3508 115.455 86.365C123.122 76.3791 133.579 68.8913 145.502 64.8485C157.425 60.8057 170.28 60.3895 182.44 63.6526C194.599 66.9156 205.518 73.7114 213.816 83.1803C222.113 92.6493 227.416 104.366 229.054 116.849C230.692 129.332 228.592 142.021 223.018 153.31C219.319 160.805 214.18 167.498 207.894 173.007C201.608 178.516 194.299 182.733 186.383 185.417C178.467 188.101 170.101 189.2 161.76 188.65C153.42 188.1 145.27 185.913 137.775 182.213Z"
    fill="#2D8CFF" />
  <path
    d="M309.311 110.11C308.282 115.335 307.262 124.902 310.914 128.379C310.914 128.379 309.486 133.672 299.793 133.672C289.11 133.672 294.694 128.379 294.694 128.379C300.522 126.99 300.366 122.668 299.346 118.667L309.311 110.11Z"
    fill="#7F3E3B" />
  <path
    d="M312.788 125.105C313.594 125.368 312.546 130.165 312.546 130.165C312.546 130.165 311.215 133.516 294.685 132.351C293.413 132.254 293.898 127.65 295.112 126.98C299.026 124.843 310.186 124.251 312.788 125.105Z"
    fill="#263238" />
  <path
    d="M324.976 130.515C331.163 133.429 333.717 153.397 333.717 153.397L319.489 158.981C317.28 153.575 315.491 148.006 314.137 142.325C312.146 133.312 318.615 127.485 324.976 130.515Z"
    fill="#FFBE9D" />
  <path opacity="0.3"
    d="M324.976 130.515C331.163 133.429 333.717 153.397 333.717 153.397L319.489 158.981C317.28 153.575 315.491 148.006 314.137 142.325C312.146 133.312 318.615 127.485 324.976 130.515Z"
    fill="white" />
  <path opacity="0.2"
    d="M315.759 136.372C315.274 136.136 314.766 135.951 314.244 135.818C313.676 137.948 313.656 140.186 314.185 142.325C315.534 148.007 317.319 153.576 319.527 158.982L324.218 157.146C323.354 151.931 320.702 138.741 315.759 136.372Z"
    fill="black" />
  <path
    d="M283.72 130.36C283.72 130.36 276.125 138.936 283.292 192.032H321.461C321.723 186.205 318.042 157.593 323.695 129.991C319.474 129.179 315.204 128.64 310.914 128.379C305.512 128.068 300.096 128.068 294.694 128.379C290.99 128.752 287.321 129.414 283.72 130.36Z"
    fill="#FFBE9D" />
  <path opacity="0.3"
    d="M283.72 130.36C283.72 130.36 276.125 138.936 283.292 192.032H321.461C321.723 186.205 318.042 157.593 323.695 129.991C319.474 129.179 315.204 128.64 310.914 128.379C305.512 128.068 300.096 128.068 294.694 128.379C290.99 128.752 287.321 129.414 283.72 130.36Z"
    fill="white" />
  <path opacity="0.2"
    d="M291.421 141.743C289.692 136.556 285.535 134.895 281.301 137.974C280.446 143.005 279.844 151.115 280.533 163.974L287.983 163.906C287.983 163.906 293.975 149.464 291.421 141.743Z"
    fill="black" />
  <path
    d="M290.022 139.615C289.712 142.218 289.284 144.578 288.808 147.036C288.333 149.493 287.779 151.892 287.148 154.31C285.901 159.253 284.204 164.071 282.078 168.703C281.524 169.898 280.883 171.073 280.204 172.248C279.854 172.841 279.504 173.433 279.106 174.016C278.59 174.826 277.98 175.572 277.29 176.24C275.95 177.483 274.361 178.426 272.628 179.008C271.221 179.501 269.766 179.843 268.287 180.028C265.647 180.355 262.979 180.388 260.332 180.125C259.038 180.021 257.775 179.856 256.545 179.629C255.282 179.406 254.088 179.173 252.786 178.833L253.417 173.511C257.85 173.325 262.251 172.674 266.548 171.568C267.422 171.31 268.271 170.972 269.083 170.558C269.617 170.314 270.083 169.944 270.443 169.48C270.365 169.548 271.074 168.373 271.492 167.538C271.909 166.703 272.376 165.595 272.774 164.624C273.59 162.624 274.289 160.506 274.93 158.34C275.571 156.175 276.134 153.97 276.659 151.736C277.183 149.502 277.63 147.249 278.115 144.938C278.601 142.626 278.951 140.334 279.3 138.188L290.022 139.615Z"
    fill="#7F3E3B" />
  <path
    d="M293.256 135.594C295.267 142.111 287.109 161.536 287.109 161.536L269.928 157.214C270.98 151.074 272.75 145.079 275.201 139.353C280.737 127.232 290.838 127.737 293.256 135.594Z"
    fill="#FFBE9D" />
  <path opacity="0.3"
    d="M293.256 135.594C295.267 142.111 287.109 161.536 287.109 161.536L269.928 157.214C270.98 151.074 272.75 145.079 275.201 139.353C280.737 127.232 290.838 127.737 293.256 135.594Z"
    fill="white" />
  <path
    d="M253.662 173.54L245.581 173.336L249.466 181.737C249.466 181.737 252.749 182.174 255.449 177.736L258.294 174.346L255.021 173.686C254.573 173.598 254.118 173.55 253.662 173.54Z"
    fill="#7F3E3B" />
  <path d="M240.48 174.9L245.113 181.863L249.474 181.737L245.579 173.336L240.48 174.9Z" fill="#7F3E3B" />
  <path
    d="M308.903 104.516C308.475 111.586 308.592 115.743 305.018 119.375C299.657 124.834 290.925 121.609 289.236 114.519C287.711 108.167 288.672 97.6783 295.587 94.8521C297.112 94.2214 298.773 93.992 300.412 94.1859C302.051 94.3798 303.612 94.9906 304.948 95.9598C306.283 96.929 307.348 98.2244 308.04 99.7223C308.733 101.22 309.03 102.87 308.903 104.516Z"
    fill="#7F3E3B" />
  <path
    d="M314.614 97.9503C314.614 97.9503 318.334 99.0575 317.168 103.302C315.411 109.751 311.273 117.171 305.931 117.637C299.279 118.229 296.278 111.363 295.404 104.263C291.422 101.534 288.469 98.9798 289.421 96.1439C290.878 91.7734 296.161 88.0051 304.572 88.9763C312.982 89.9475 317.168 95.3863 314.614 97.9503Z"
    fill="#263238" />
  <path
    d="M299.452 105.72C299.323 107.474 298.62 109.136 297.452 110.45C295.898 112.159 294.266 111.091 293.994 109.012C293.751 107.128 294.256 103.972 296.16 103.03C298.063 102.088 299.579 103.603 299.452 105.72Z"
    fill="#7F3E3B" />
  <path
    d="M296.746 192.217C296.746 192.217 294.341 234.651 299.026 252.629C306.447 281.095 339.069 303.906 339.069 303.906L349.546 296.494C349.546 296.494 322.705 278.85 320.289 255.148C318.126 233.862 321.327 209.415 321.327 192.217H296.746Z"
    fill="#FE9F8A" />
  <path opacity="0.2"
    d="M296.746 192.217C296.746 192.217 294.341 234.651 299.026 252.629C306.447 281.095 339.069 303.906 339.069 303.906L349.546 296.494C349.546 296.494 322.705 278.85 320.289 255.148C318.126 233.862 321.327 209.415 321.327 192.217H296.746Z"
    fill="black" />
  <path opacity="0.2"
    d="M300.415 206.28C299.444 204.405 297.55 209.99 296.229 217.157C296.229 227.044 296.404 238.291 297.269 247.819C303.863 235.63 302.465 210.165 300.415 206.28Z"
    fill="black" />
  <path
    d="M283.489 192.217C283.489 192.217 272.671 226.596 271.908 243.016C271.057 261.438 279.626 304.877 279.626 304.877H291.804C291.804 304.877 293.3 261.1 293.848 244.321C294.435 226.032 308.755 192.217 308.755 192.217H283.489Z"
    fill="#FE9F8A" />
  <path opacity="0.2"
    d="M283.489 192.217C283.489 192.217 272.671 226.596 271.908 243.016C271.057 261.438 279.626 304.877 279.626 304.877H291.804C291.804 304.877 293.3 261.1 293.848 244.321C294.435 226.032 308.755 192.217 308.755 192.217H283.489Z"
    fill="black" />
</svg>