<svg width="89" height="21" viewBox="0 0 89 21" fill="none" xmlns="http://www.w3.org/2000/svg">
<path d="M18.4726 19.7365H2.72362C1.61866 19.7365 0.631405 19.0768 0.20856 18.056C-0.214285 17.0351 0.0173848 15.8705 0.798751 15.0893L11.7075 4.18064H3.88898C1.74116 4.18064 1.47522e-05 2.43949 1.47522e-05 0.291671H14.524C15.6289 0.291671 16.6161 0.95116 17.039 1.97201C17.4619 2.99286 17.2304 4.15728 16.4491 4.93888L5.54039 15.8475H14.5836C16.7315 15.8475 18.4726 17.5887 18.4726 19.7365ZM88.0851 7.58347C88.0851 3.40187 84.6831 0 80.5016 0C78.2649 0 76.2519 0.973947 74.8626 2.51939C73.4734 0.973947 71.4604 0 69.2236 0C65.0421 0 61.6402 3.4019 61.6402 7.58347V19.7365C63.788 19.7365 65.5291 17.9953 65.5291 15.8475V7.58347C65.5291 5.54633 67.1865 3.88897 69.2236 3.88897C71.2608 3.88897 72.9181 5.54633 72.9181 7.58347V15.8475C72.9181 17.9953 74.6593 19.7365 76.8071 19.7365V7.58347C76.8071 5.54633 78.4645 3.88897 80.5016 3.88897C82.5388 3.88897 84.1961 5.54633 84.1961 7.58347V15.8475C84.1961 17.9953 85.9373 19.7365 88.0851 19.7365V7.58347ZM59.6957 10.0141C59.6957 15.5447 55.2122 20.0282 49.6816 20.0282C44.1509 20.0282 39.6675 15.5447 39.6675 10.0141C39.6675 4.48345 44.1509 0 49.6815 0C55.2122 0 59.6956 4.48345 59.6956 10.0141H59.6957ZM55.8067 10.0141C55.8067 6.63127 53.0644 3.88897 49.6816 3.88897C46.2988 3.88897 43.5565 6.63127 43.5565 10.0141C43.5565 13.3969 46.2988 16.1392 49.6816 16.1392C53.0644 16.1392 55.8067 13.3969 55.8067 10.0141ZM38.1119 10.0141C38.1119 15.5447 33.6284 20.0282 28.0978 20.0282C22.5672 20.0282 18.0837 15.5447 18.0837 10.0141C18.0837 4.48345 22.5672 0 28.0978 0C33.6284 0 38.1119 4.48345 38.1119 10.0141H38.1119ZM34.2229 10.0141C34.2229 6.63127 31.4806 3.88897 28.0978 3.88897C24.715 3.88897 21.9727 6.63127 21.9727 10.0141C21.9727 13.3969 24.715 16.1392 28.0978 16.1392C31.4806 16.1392 34.2229 13.3969 34.2229 10.0141Z" fill="#0B5CFF"/>
</svg>
