<svg width="28" height="29" viewBox="0 0 28 29" fill="none" xmlns="http://www.w3.org/2000/svg">
<path d="M28 15C28 16.4971 27.8796 17.9651 27.6497 19.3965C26.8886 24.1351 23.1351 27.8886 18.3965 28.6497C16.965 28.8796 15.497 29 14 29C12.503 29 11.035 28.8796 9.60355 28.6497C4.86494 27.8886 1.11135 24.1351 0.350273 19.3965C0.120366 17.9651 0 16.4971 0 15C0 13.5029 0.120366 12.0349 0.350273 10.6035C1.11135 5.86489 4.86494 2.11135 9.60355 1.35027C11.035 1.12036 12.503 1 14 1C15.497 1 16.965 1.12036 18.3965 1.35027C23.1351 2.11135 26.8886 5.86489 27.6497 10.6035C27.8796 12.0349 28 13.5029 28 15Z" fill="#0B5CFF"/>
<path d="M28 15C28 16.4971 27.8796 17.9651 27.6497 19.3965C26.8886 24.1351 23.1351 27.8886 18.3965 28.6497C16.965 28.8796 15.497 29 14 29C12.503 29 11.035 28.8796 9.60355 28.6497C4.86494 27.8886 1.11135 24.1351 0.350273 19.3965C0.120366 17.9651 0 16.4971 0 15C0 13.5029 0.120366 12.0349 0.350273 10.6035C1.11135 5.86489 4.86494 2.11135 9.60355 1.35027C11.035 1.12036 12.503 1 14 1C15.497 1 16.965 1.12036 18.3965 1.35027C23.1351 2.11135 26.8886 5.86489 27.6497 10.6035C27.8796 12.0349 28 13.5029 28 15Z" fill="url(#paint0_radial_3875_11657)"/>
<path d="M27.9999 15C27.9999 16.4971 27.8795 17.9651 27.6496 19.3965C26.8885 24.1351 23.135 27.8886 18.3964 28.6497C16.9649 28.8796 15.497 29 13.9999 29C12.5029 29 11.0349 28.8796 9.60349 28.6497C4.86484 27.8886 1.1113 24.1351 0.350223 19.3965C0.120316 17.965 0 16.4971 0 15C0 13.503 0.120316 12.0349 0.350223 10.6034C1.11135 5.86489 4.86489 2.11125 9.60349 1.35022C11.035 1.12032 12.5029 1 13.9999 1C15.497 1 16.965 1.12032 18.3964 1.35022C23.135 2.11125 26.8885 5.86489 27.6496 10.6034C27.8795 12.0349 27.9999 13.5029 27.9999 15Z" fill="url(#paint1_radial_3875_11657)"/>
<g clip-path="url(#clip0_3875_11657)">
<path d="M19.0001 8.125H9C7.34314 8.125 6 9.46814 6 11.125V19.125C6 20.7819 7.34314 22.125 9 22.125H19.0001C20.6569 22.125 22.0001 20.7819 22.0001 19.125V11.125C22.0001 9.46814 20.6569 8.125 19.0001 8.125ZM13.922 13.2321L12.4625 13.0026C12.2452 12.9685 12.0661 12.8151 11.9996 12.6063L11.5287 11.1314C11.369 10.6311 11.9064 10.1943 12.3661 10.4508L16.7028 12.8697C17.099 13.0908 17.099 13.659 16.7028 13.8801L12.3658 16.2993C11.9064 16.5557 11.369 16.119 11.5287 15.6187L11.9994 14.1438C12.066 13.935 12.2452 13.7815 12.4625 13.7474L13.9218 13.518C14.0853 13.4923 14.0853 13.2578 13.922 13.2321ZM19.0001 19.625H12.8927C12.6996 20.0656 12.2618 20.375 11.7501 20.375C11.2382 20.375 10.8005 20.0656 10.6073 19.625H9.00012C8.72375 19.625 8.50012 19.4014 8.50012 19.125C8.50012 18.8486 8.72375 18.625 9.00012 18.625H10.6073C10.8005 18.1844 11.2382 17.875 11.7501 17.875C12.2618 17.875 12.6996 18.1844 12.8927 18.625H19.0001C19.2765 18.625 19.5001 18.8486 19.5001 19.125C19.5001 19.4014 19.2765 19.625 19.0001 19.625Z" fill="white"/>
</g>
<defs>
<radialGradient id="paint0_radial_3875_11657" cx="0" cy="0" r="1" gradientUnits="userSpaceOnUse" gradientTransform="translate(14 13.3731) scale(18.8757 15.7759)">
<stop offset="0.82" stop-color="#0B5CFF" stop-opacity="0"/>
<stop offset="0.98" stop-color="#003CB3"/>
</radialGradient>
<radialGradient id="paint1_radial_3875_11657" cx="0" cy="0" r="1" gradientUnits="userSpaceOnUse" gradientTransform="translate(13.9999 16.6211) scale(18.8689 15.7702)">
<stop offset="0.8" stop-color="#0B5CFF" stop-opacity="0"/>
<stop offset="1" stop-color="#71A5F1"/>
</radialGradient>
<clipPath id="clip0_3875_11657">
<rect width="18" height="18" fill="white" transform="translate(5 6)"/>
</clipPath>
</defs>
</svg>
