<svg width="28" height="29" viewBox="0 0 28 29" fill="none" xmlns="http://www.w3.org/2000/svg">
<path d="M28 15C28 16.4971 27.8796 17.9651 27.6497 19.3965C26.8886 24.1351 23.1351 27.8886 18.3965 28.6497C16.965 28.8796 15.497 29 14 29C12.503 29 11.035 28.8796 9.60355 28.6497C4.86494 27.8886 1.11135 24.1351 0.350273 19.3965C0.120366 17.9651 0 16.4971 0 15C0 13.5029 0.120366 12.0349 0.350273 10.6035C1.11135 5.86489 4.86494 2.11135 9.60355 1.35027C11.035 1.12036 12.503 1 14 1C15.497 1 16.965 1.12036 18.3965 1.35027C23.1351 2.11135 26.8886 5.86489 27.6497 10.6035C27.8796 12.0349 28 13.5029 28 15Z" fill="#0B5CFF"/>
<path d="M28 15C28 16.4971 27.8796 17.9651 27.6497 19.3965C26.8886 24.1351 23.1351 27.8886 18.3965 28.6497C16.965 28.8796 15.497 29 14 29C12.503 29 11.035 28.8796 9.60355 28.6497C4.86494 27.8886 1.11135 24.1351 0.350273 19.3965C0.120366 17.9651 0 16.4971 0 15C0 13.5029 0.120366 12.0349 0.350273 10.6035C1.11135 5.86489 4.86494 2.11135 9.60355 1.35027C11.035 1.12036 12.503 1 14 1C15.497 1 16.965 1.12036 18.3965 1.35027C23.1351 2.11135 26.8886 5.86489 27.6497 10.6035C27.8796 12.0349 28 13.5029 28 15Z" fill="url(#paint0_radial_3875_11841)"/>
<path d="M27.9999 15C27.9999 16.4971 27.8795 17.9651 27.6496 19.3965C26.8885 24.1351 23.135 27.8886 18.3964 28.6497C16.9649 28.8796 15.497 29 13.9999 29C12.5029 29 11.0349 28.8796 9.60349 28.6497C4.86484 27.8886 1.1113 24.1351 0.350223 19.3965C0.120316 17.965 0 16.4971 0 15C0 13.503 0.120316 12.0349 0.350223 10.6034C1.11135 5.86489 4.86489 2.11125 9.60349 1.35022C11.035 1.12032 12.5029 1 13.9999 1C15.497 1 16.965 1.12032 18.3964 1.35022C23.135 2.11125 26.8885 5.86489 27.6496 10.6034C27.8795 12.0349 27.9999 13.5029 27.9999 15Z" fill="url(#paint1_radial_3875_11841)"/>
<g clip-path="url(#clip0_3875_11841)">
<path d="M22 14.4998C22 13.2057 21.0083 12.151 19.7473 12.0248C19.0075 9.98897 16.7127 8.5 14.0002 8.5C11.2933 8.5 8.99942 9.98238 8.25481 12.0116C6.99118 12.1356 6 13.204 6 14.4998C6 15.8787 7.12155 16.9998 8.49992 16.9998C8.77579 16.9998 8.9999 16.7761 8.9999 16.4998L9.00039 13.4354C9.00039 11.2655 11.2435 9.49996 14.0002 9.49996C16.757 9.49996 19.0001 11.2655 19.0001 13.4354V16.4998C19.0001 18.0918 17.6177 19.424 15.7434 19.8468C15.5601 19.6381 15.2995 19.5 15 19.5H14C13.4477 19.5 13 19.9477 13 20.5C13 21.0522 13.4477 21.5 14 21.5H15C15.4317 21.5 15.7914 21.223 15.9314 20.8397C18.099 20.3605 19.7424 18.8265 19.972 16.9521C21.1251 16.7305 22 15.7171 22 14.4998ZM15 17.5C16.6568 17.5 17.9999 16.157 17.9999 14.5001C17.9999 12.8434 16.6568 11.5002 15 11.5002H13.0001C11.3433 11.5002 10.0002 12.8434 10.0002 14.5001C10.0002 15.385 10.3906 16.1724 11.0001 16.7214V18.4989C11.0001 18.9444 11.5387 19.1675 11.8536 18.8526L13.2061 17.5H15Z" fill="white"/>
</g>
<defs>
<radialGradient id="paint0_radial_3875_11841" cx="0" cy="0" r="1" gradientUnits="userSpaceOnUse" gradientTransform="translate(14 13.3731) scale(18.8757 15.7759)">
<stop offset="0.82" stop-color="#0B5CFF" stop-opacity="0"/>
<stop offset="0.98" stop-color="#003CB3"/>
</radialGradient>
<radialGradient id="paint1_radial_3875_11841" cx="0" cy="0" r="1" gradientUnits="userSpaceOnUse" gradientTransform="translate(13.9999 16.6211) scale(18.8689 15.7702)">
<stop offset="0.8" stop-color="#0B5CFF" stop-opacity="0"/>
<stop offset="1" stop-color="#71A5F1"/>
</radialGradient>
<clipPath id="clip0_3875_11841">
<rect width="18" height="18" fill="white" transform="translate(5 6)"/>
</clipPath>
</defs>
</svg>
