<svg width="28" height="29" viewBox="0 0 28 29" fill="none" xmlns="http://www.w3.org/2000/svg">
<path d="M28 15C28 16.4971 27.8796 17.9651 27.6497 19.3965C26.8886 24.1351 23.1351 27.8886 18.3965 28.6497C16.965 28.8796 15.497 29 14 29C12.503 29 11.035 28.8796 9.60355 28.6497C4.86494 27.8886 1.11135 24.1351 0.350273 19.3965C0.120366 17.9651 0 16.4971 0 15C0 13.5029 0.120366 12.0349 0.350273 10.6035C1.11135 5.86489 4.86494 2.11135 9.60355 1.35027C11.035 1.12036 12.503 1 14 1C15.497 1 16.965 1.12036 18.3965 1.35027C23.1351 2.11135 26.8886 5.86489 27.6497 10.6035C27.8796 12.0349 28 13.5029 28 15Z" fill="#0B5CFF"/>
<path d="M28 15C28 16.4971 27.8796 17.9651 27.6497 19.3965C26.8886 24.1351 23.1351 27.8886 18.3965 28.6497C16.965 28.8796 15.497 29 14 29C12.503 29 11.035 28.8796 9.60355 28.6497C4.86494 27.8886 1.11135 24.1351 0.350273 19.3965C0.120366 17.9651 0 16.4971 0 15C0 13.5029 0.120366 12.0349 0.350273 10.6035C1.11135 5.86489 4.86494 2.11135 9.60355 1.35027C11.035 1.12036 12.503 1 14 1C15.497 1 16.965 1.12036 18.3965 1.35027C23.1351 2.11135 26.8886 5.86489 27.6497 10.6035C27.8796 12.0349 28 13.5029 28 15Z" fill="url(#paint0_radial_3875_11743)"/>
<path d="M27.9999 15C27.9999 16.4971 27.8795 17.9651 27.6496 19.3965C26.8885 24.1351 23.135 27.8886 18.3964 28.6497C16.9649 28.8796 15.497 29 13.9999 29C12.5029 29 11.0349 28.8796 9.60349 28.6497C4.86484 27.8886 1.1113 24.1351 0.350223 19.3965C0.120316 17.965 0 16.4971 0 15C0 13.503 0.120316 12.0349 0.350223 10.6034C1.11135 5.86489 4.86489 2.11125 9.60349 1.35022C11.035 1.12032 12.5029 1 13.9999 1C15.497 1 16.965 1.12032 18.3964 1.35022C23.135 2.11125 26.8885 5.86489 27.6496 10.6034C27.8795 12.0349 27.9999 13.5029 27.9999 15Z" fill="url(#paint1_radial_3875_11743)"/>
<g clip-path="url(#clip0_3875_11743)">
<path d="M22 14.9966V17.9965C22 17.9964 22 17.9966 22 17.9965L21.9999 17.9989C21.9999 18.5511 21.5521 18.9987 20.9999 18.9987H15.5001C14.9477 18.9987 14.5001 18.5511 14.5001 17.9989V14.9993C14.5001 14.9992 14.5001 14.9994 14.5001 14.9993L14.5002 14.9966C14.5002 14.4432 14.9468 13.9966 15.5002 13.9966H21C21.5532 13.9966 22 14.4432 22 14.9966ZM12.8894 14.0782C12.7696 14.0274 12.638 13.9991 12.4998 13.9991H6.99997C6.7241 13.9991 6.47411 14.1113 6.29296 14.2923C6.27831 14.3071 6.27184 14.3284 6.25805 14.3441C6.10242 14.5204 6 14.7457 6 14.999V17.9986C6 18.1365 6.02808 18.268 6.07861 18.3876C6.23022 18.7472 6.58567 18.9998 7.00046 18.9998H7.52364C7.80036 18.9998 8.02362 18.7765 8.02362 18.4998C8.02362 18.4305 8.0097 18.3647 7.98431 18.3048C7.90863 18.1249 7.7309 17.9986 7.52339 17.9986H7.00046V14.9999H12.4998V17.6285C12.4998 17.6977 12.5138 17.7636 12.5392 17.8235C12.6148 18.0036 12.7923 18.1298 13.0003 18.1298C13.2769 18.1298 13.5003 17.9065 13.5003 17.6298V14.9999C13.5003 14.5847 13.2487 14.2298 12.8894 14.0782ZM12.5003 8H7.00046C6.46312 8 6.03443 8.42389 6.00952 8.95494C6.00879 8.97081 6.00037 8.98411 6.00037 9.00016V11.9997C6.00037 12.0149 6.0083 12.0275 6.00904 12.0425C6.03248 12.5748 6.46215 12.9999 7.00046 12.9999H12.5003C13.0535 12.9999 13.5003 12.5533 13.5003 11.9999V8.99999C13.5003 8.44666 13.0535 8 12.5003 8ZM21 8H15.5002C14.9629 8 14.5342 8.42389 14.5093 8.95494C14.5085 8.97081 14.5001 8.98411 14.5001 9.00016V11.9997C14.5001 12.0149 14.508 12.0275 14.5088 12.0425C14.5322 12.5748 14.9619 12.9999 15.5002 12.9999H21C21.5532 12.9999 22 12.5533 22 11.9999V8.99999C22 8.44666 21.5532 8 21 8ZM12.9401 18.9568C12.9407 18.9568 12.9412 18.9572 12.9418 18.9572C12.9424 18.9572 12.9429 18.9568 12.9434 18.9568H12.9401ZM12.9418 18.9572C12.6326 18.9582 12.3835 19.2074 12.3835 19.5168V18.9568C12.3835 18.6468 12.1335 18.3968 11.8236 18.3968C11.5135 18.3968 11.2635 18.6468 11.2635 18.9568V18.6768C11.2635 18.3668 11.0135 18.1169 10.7035 18.1169C10.3934 18.1169 10.1434 18.3668 10.1434 18.6768V16.7135C10.1434 16.4035 9.89345 16.1535 9.58352 16.1535C9.27359 16.1535 9.0236 16.4035 9.0236 16.7135V19.9334C9.0236 20.1068 8.92692 20.2501 8.77019 20.3301C8.61028 20.4101 8.43695 20.3768 8.31024 20.2668C7.78694 19.8068 7.3569 19.5368 7.08689 19.5034C6.78697 19.4701 6.50024 19.6134 6.50024 19.9334C6.50024 20.0434 6.54699 20.1401 6.64355 20.2368C6.88036 20.4268 7.07371 20.6034 7.2302 20.7601C7.69027 21.2067 8.10359 21.73 8.50018 22.38C9.12028 23.3967 10.2002 24 11.3902 24C12.5567 24 13.5 23.0533 13.5 21.89V19.5168C13.5 19.2074 13.251 18.9582 12.9418 18.9572Z" fill="white"/>
</g>
<defs>
<radialGradient id="paint0_radial_3875_11743" cx="0" cy="0" r="1" gradientUnits="userSpaceOnUse" gradientTransform="translate(14 13.3731) scale(18.8757 15.7759)">
<stop offset="0.82" stop-color="#0B5CFF" stop-opacity="0"/>
<stop offset="0.98" stop-color="#003CB3"/>
</radialGradient>
<radialGradient id="paint1_radial_3875_11743" cx="0" cy="0" r="1" gradientUnits="userSpaceOnUse" gradientTransform="translate(13.9999 16.6211) scale(18.8689 15.7702)">
<stop offset="0.8" stop-color="#0B5CFF" stop-opacity="0"/>
<stop offset="1" stop-color="#71A5F1"/>
</radialGradient>
<clipPath id="clip0_3875_11743">
<rect width="18" height="18" fill="white" transform="translate(5 6)"/>
</clipPath>
</defs>
</svg>
