<svg width="29" height="29" viewBox="0 0 29 29" fill="none" xmlns="http://www.w3.org/2000/svg">
<path d="M28.091 14.9999C28.091 16.497 27.9706 17.965 27.7407 19.3964C26.9796 24.135 23.226 27.8885 18.4874 28.6496C17.056 28.8795 15.588 28.9999 14.0909 28.9999C12.5939 28.9999 11.1259 28.8795 9.69449 28.6496C4.95588 27.8885 1.2023 24.135 0.441215 19.3964C0.211308 17.9651 0.0909424 16.497 0.0909424 14.9999C0.0909424 13.5028 0.211308 12.0348 0.441215 10.6034C1.2023 5.86486 4.95588 2.11134 9.69449 1.35027C11.1259 1.12036 12.5939 1 14.0909 1C15.588 1 17.056 1.12036 18.4874 1.35027C23.226 2.11134 26.9796 5.86486 27.7407 10.6034C27.9706 12.0348 28.091 13.5028 28.091 14.9999Z" fill="#0B5CFF"/>
<path d="M28.091 14.9999C28.091 16.497 27.9706 17.965 27.7407 19.3964C26.9796 24.135 23.226 27.8885 18.4874 28.6496C17.056 28.8795 15.588 28.9999 14.0909 28.9999C12.5939 28.9999 11.1259 28.8795 9.69449 28.6496C4.95588 27.8885 1.2023 24.135 0.441215 19.3964C0.211308 17.9651 0.0909424 16.497 0.0909424 14.9999C0.0909424 13.5028 0.211308 12.0348 0.441215 10.6034C1.2023 5.86486 4.95588 2.11134 9.69449 1.35027C11.1259 1.12036 12.5939 1 14.0909 1C15.588 1 17.056 1.12036 18.4874 1.35027C23.226 2.11134 26.9796 5.86486 27.7407 10.6034C27.9706 12.0348 28.091 13.5028 28.091 14.9999Z" fill="url(#paint0_radial_3875_11803)"/>
<path d="M28.0908 14.9999C28.0908 16.497 27.9705 17.965 27.7406 19.3964C26.9794 24.135 23.2259 27.8885 18.4873 28.6495C17.0559 28.8794 15.5879 28.9998 14.0909 28.9998C12.5939 28.9998 11.1259 28.8794 9.69444 28.6495C4.95578 27.8885 1.20225 24.135 0.441166 19.3964C0.211258 17.965 0.0909424 16.497 0.0909424 14.9999C0.0909424 13.5029 0.211258 12.0348 0.441166 10.6034C1.2023 5.86486 4.95583 2.11125 9.69444 1.35022C11.1259 1.12032 12.5938 1 14.0909 1C15.588 1 17.0559 1.12032 18.4873 1.35022C23.226 2.11125 26.9795 5.86486 27.7406 10.6034C27.9705 12.0348 28.0908 13.5028 28.0908 14.9999Z" fill="url(#paint1_radial_3875_11803)"/>
<path fill-rule="evenodd" clip-rule="evenodd" d="M19.8903 16.9789C20.1492 17.5576 20.827 17.8242 21.4057 17.5652C21.9845 17.3063 22.251 16.6362 21.9921 16.065L19.6466 10.6962C19.3953 10.1099 18.7175 9.85095 18.1388 10.1023C17.5524 10.3536 17.2935 11.0313 17.5448 11.6101L19.8903 16.9789ZM15.9532 21.251C16.2045 21.8298 16.8822 22.0963 17.461 21.845C18.0321 21.5937 18.2987 20.916 18.055 20.3372L13.859 10.6886C13.6077 10.1099 12.9299 9.84334 12.3511 10.0946C11.7724 10.3459 11.5058 11.0237 11.7572 11.6025L15.9532 21.251ZM11.6658 21.845C11.9475 21.7232 12.1608 21.4947 12.275 21.2129C12.3892 20.9312 12.3816 20.6113 12.2598 20.3372L9.89141 14.877C9.64011 14.2983 8.96234 14.0317 8.38358 14.283C7.80482 14.5343 7.53829 15.2121 7.78959 15.7909L10.1579 21.251C10.4092 21.8298 11.087 22.0963 11.6658 21.845ZM7.21844 10.4145C6.5483 10.4145 6 10.9628 6 11.6329C6 12.3107 6.5483 12.8514 7.21844 12.8514C7.88859 12.8514 8.43689 12.3031 8.43689 11.6329C8.43689 10.9628 7.88859 10.4145 7.21844 10.4145Z" fill="white"/>
<defs>
<radialGradient id="paint0_radial_3875_11803" cx="0" cy="0" r="1" gradientUnits="userSpaceOnUse" gradientTransform="translate(14.0909 13.373) scale(18.8757 15.7758)">
<stop offset="0.82" stop-color="#0B5CFF" stop-opacity="0"/>
<stop offset="0.98" stop-color="#003CB3"/>
</radialGradient>
<radialGradient id="paint1_radial_3875_11803" cx="0" cy="0" r="1" gradientUnits="userSpaceOnUse" gradientTransform="translate(14.0909 16.621) scale(18.8689 15.7702)">
<stop offset="0.8" stop-color="#0B5CFF" stop-opacity="0"/>
<stop offset="1" stop-color="#71A5F1"/>
</radialGradient>
</defs>
</svg>
