<svg width="28" height="29" viewBox="0 0 28 29" fill="none" xmlns="http://www.w3.org/2000/svg">
<path d="M28 15C28 16.4971 27.8796 17.9651 27.6497 19.3965C26.8886 24.1351 23.1351 27.8886 18.3965 28.6497C16.965 28.8796 15.497 29 14 29C12.503 29 11.035 28.8796 9.60355 28.6497C4.86494 27.8886 1.11135 24.1351 0.350273 19.3965C0.120366 17.9651 0 16.4971 0 15C0 13.5029 0.120366 12.0349 0.350273 10.6035C1.11135 5.86489 4.86494 2.11135 9.60355 1.35027C11.035 1.12036 12.503 1 14 1C15.497 1 16.965 1.12036 18.3965 1.35027C23.1351 2.11135 26.8886 5.86489 27.6497 10.6035C27.8796 12.0349 28 13.5029 28 15Z" fill="#0B5CFF"/>
<path d="M28 15C28 16.4971 27.8796 17.9651 27.6497 19.3965C26.8886 24.1351 23.1351 27.8886 18.3965 28.6497C16.965 28.8796 15.497 29 14 29C12.503 29 11.035 28.8796 9.60355 28.6497C4.86494 27.8886 1.11135 24.1351 0.350273 19.3965C0.120366 17.9651 0 16.4971 0 15C0 13.5029 0.120366 12.0349 0.350273 10.6035C1.11135 5.86489 4.86494 2.11135 9.60355 1.35027C11.035 1.12036 12.503 1 14 1C15.497 1 16.965 1.12036 18.3965 1.35027C23.1351 2.11135 26.8886 5.86489 27.6497 10.6035C27.8796 12.0349 28 13.5029 28 15Z" fill="url(#paint0_radial_3875_11881)"/>
<path d="M27.9999 15C27.9999 16.4971 27.8795 17.9651 27.6496 19.3965C26.8885 24.1351 23.135 27.8886 18.3964 28.6497C16.9649 28.8796 15.497 29 13.9999 29C12.5029 29 11.0349 28.8796 9.60349 28.6497C4.86484 27.8886 1.1113 24.1351 0.350223 19.3965C0.120316 17.965 0 16.4971 0 15C0 13.503 0.120316 12.0349 0.350223 10.6034C1.11135 5.86489 4.86489 2.11125 9.60349 1.35022C11.035 1.12032 12.5029 1 13.9999 1C15.497 1 16.965 1.12032 18.3964 1.35022C23.135 2.11125 26.8885 5.86489 27.6496 10.6034C27.8795 12.0349 27.9999 13.5029 27.9999 15Z" fill="url(#paint1_radial_3875_11881)"/>
<g clip-path="url(#clip0_3875_11881)">
<path d="M17.6 17.9C17.3 17.6 17.1 17.3 17 17H15C14.7 17 14.5 16.8 14.5 16.5C14.5 16.2 14.7 16 15 16H16.7C16.7 15.6 16.8 15.3 16.9 15H15C14.7 15 14.5 14.8 14.5 14.5C14.5 14.2 14.7 14 15 14H17.5H17.6C18.1 13.5 18.8 13.2 19.5 13.2C19.7 13.2 19.8 13.2 20 13.3V11.7C20 10.6 19.1 9.69995 18 9.69995H8.5C7.4 9.69995 6.5 10.6 6.5 11.7V17.2C6.5 18.3 7.4 19.2 8.5 19.2H15.8C16.2 18.7 16.8 18.2 17.6 17.9ZM20.7 18.8C20.5 18.8 20.4 18.9 20.4 19L19.8 20.7C19.8 20.8 19.7 20.9 19.6 20.9C19.5 20.9 19.4 20.8 19.4 20.7L18.8 19C18.8 18.9 18.7 18.8 18.6 18.8C18.6 18.8 18.6 18.8 18.5 18.8C17.4 19.1 16.7 19.7 16.7 20.4C16.7 20.9 17.1 21.3 17.6 21.3H21.9C22.3 21.3 22.8 20.9 22.8 20.4C22.5 19.6 21.8 19 20.7 18.8ZM19.5 17.8C20.5 17.8 21.2 17 21.2 16C21.2 15 20.4 14.3 19.5 14.3C18.6 14.3 17.7 15 17.7 16C17.7 17 18.5 17.8 19.5 17.8ZM15 12H17.5C17.8 12 18 12.2 18 12.5C18 12.8 17.8 13 17.5 13H15C14.7 13 14.5 12.8 14.5 12.5C14.5 12.2 14.7 12 15 12ZM11 11.8C11.8 11.8 12.4 12.4 12.4 13.2C12.4 14 11.8 14.6 11 14.6C10.2 14.6 9.6 14 9.6 13.2C9.6 12.4 10.2 11.8 11 11.8ZM12.8 17.2H9.2C8.9 17.2 8.5 16.9 8.5 16.5C8.5 15.7 9.6 15.1 11 15.1C12.4 15.1 13.5 15.7 13.5 16.5C13.5 16.9 13.1 17.2 12.8 17.2Z" fill="white"/>
</g>
<defs>
<radialGradient id="paint0_radial_3875_11881" cx="0" cy="0" r="1" gradientUnits="userSpaceOnUse" gradientTransform="translate(14 13.3731) scale(18.8757 15.7759)">
<stop offset="0.82" stop-color="#0B5CFF" stop-opacity="0"/>
<stop offset="0.98" stop-color="#003CB3"/>
</radialGradient>
<radialGradient id="paint1_radial_3875_11881" cx="0" cy="0" r="1" gradientUnits="userSpaceOnUse" gradientTransform="translate(13.9999 16.6211) scale(18.8689 15.7702)">
<stop offset="0.8" stop-color="#0B5CFF" stop-opacity="0"/>
<stop offset="1" stop-color="#71A5F1"/>
</radialGradient>
<clipPath id="clip0_3875_11881">
<rect width="18" height="18" fill="white" transform="translate(5 6)"/>
</clipPath>
</defs>
</svg>
