<svg width="28" height="29" viewBox="0 0 28 29" fill="none" xmlns="http://www.w3.org/2000/svg">
<path d="M28 15C28 16.4971 27.8796 17.9651 27.6497 19.3965C26.8886 24.1351 23.1351 27.8886 18.3965 28.6497C16.965 28.8796 15.497 29 14 29C12.503 29 11.035 28.8796 9.60355 28.6497C4.86494 27.8886 1.11135 24.1351 0.350273 19.3965C0.120366 17.9651 0 16.4971 0 15C0 13.5029 0.120366 12.0349 0.350273 10.6035C1.11135 5.86489 4.86494 2.11135 9.60355 1.35027C11.035 1.12036 12.503 1 14 1C15.497 1 16.965 1.12036 18.3965 1.35027C23.1351 2.11135 26.8886 5.86489 27.6497 10.6035C27.8796 12.0349 28 13.5029 28 15Z" fill="#0B5CFF"/>
<path d="M28 15C28 16.4971 27.8796 17.9651 27.6497 19.3965C26.8886 24.1351 23.1351 27.8886 18.3965 28.6497C16.965 28.8796 15.497 29 14 29C12.503 29 11.035 28.8796 9.60355 28.6497C4.86494 27.8886 1.11135 24.1351 0.350273 19.3965C0.120366 17.9651 0 16.4971 0 15C0 13.5029 0.120366 12.0349 0.350273 10.6035C1.11135 5.86489 4.86494 2.11135 9.60355 1.35027C11.035 1.12036 12.503 1 14 1C15.497 1 16.965 1.12036 18.3965 1.35027C23.1351 2.11135 26.8886 5.86489 27.6497 10.6035C27.8796 12.0349 28 13.5029 28 15Z" fill="url(#paint0_radial_3875_11903)"/>
<path d="M27.9999 15C27.9999 16.4971 27.8795 17.9651 27.6496 19.3965C26.8885 24.1351 23.135 27.8886 18.3964 28.6497C16.9649 28.8796 15.497 29 13.9999 29C12.5029 29 11.0349 28.8796 9.60349 28.6497C4.86484 27.8886 1.1113 24.1351 0.350223 19.3965C0.120316 17.965 0 16.4971 0 15C0 13.503 0.120316 12.0349 0.350223 10.6034C1.11135 5.86489 4.86489 2.11125 9.60349 1.35022C11.035 1.12032 12.5029 1 13.9999 1C15.497 1 16.965 1.12032 18.3964 1.35022C23.135 2.11125 26.8885 5.86489 27.6496 10.6034C27.8795 12.0349 27.9999 13.5029 27.9999 15Z" fill="url(#paint1_radial_3875_11903)"/>
<g clip-path="url(#clip0_3875_11903)">
<path d="M14 7.5C9.58191 7.5 6 11.0823 6 15.5008C6 17.4079 6.6814 19.1439 7.80103 20.5121C8.32349 21.1504 9.1233 21.5 9.94825 21.5H18.052C18.8767 21.5 19.6768 21.1504 20.1992 20.5121C21.3189 19.1439 22 17.4079 22 15.5008C22 11.0823 18.4185 7.5 14 7.5ZM11.1714 19.0369C11.0737 19.1346 10.9458 19.1834 10.8179 19.1834C10.6899 19.1834 10.562 19.1346 10.4644 19.0369C8.51513 17.0866 8.51513 13.9145 10.4644 11.9652C11.9335 10.4953 14.0979 10.1367 15.9103 10.8835C15.4994 11.1267 15.0906 11.3689 14.6978 11.6016C13.4446 11.3924 12.0974 11.7457 11.1714 12.6722C9.61181 14.2319 9.61181 16.7692 11.1714 18.3299C11.3667 18.5252 11.3667 18.8416 11.1714 19.0369ZM18.3387 12.0589C17.2993 13.8256 15.9817 16.0768 15.7139 16.5307C15.6283 16.6681 15.532 16.797 15.4143 16.9152C14.6323 17.6965 13.3679 17.6965 12.5859 16.9152C11.8145 16.1349 11.8145 14.8684 12.5859 14.0866C12.7146 13.9638 12.8538 13.8601 12.9929 13.7758C13.4856 13.4816 15.6926 12.1739 17.4282 11.1472C18.0171 10.7981 18.6812 11.4656 18.3387 12.0589Z" fill="white"/>
</g>
<defs>
<radialGradient id="paint0_radial_3875_11903" cx="0" cy="0" r="1" gradientUnits="userSpaceOnUse" gradientTransform="translate(14 13.3731) scale(18.8757 15.7759)">
<stop offset="0.82" stop-color="#0B5CFF" stop-opacity="0"/>
<stop offset="0.98" stop-color="#003CB3"/>
</radialGradient>
<radialGradient id="paint1_radial_3875_11903" cx="0" cy="0" r="1" gradientUnits="userSpaceOnUse" gradientTransform="translate(13.9999 16.6211) scale(18.8689 15.7702)">
<stop offset="0.8" stop-color="#0B5CFF" stop-opacity="0"/>
<stop offset="1" stop-color="#71A5F1"/>
</radialGradient>
<clipPath id="clip0_3875_11903">
<rect width="18" height="18" fill="white" transform="translate(5 6)"/>
</clipPath>
</defs>
</svg>
