<svg fill="none" height="29" viewBox="0 0 28 29" width="28" xmlns="http://www.w3.org/2000/svg" xmlns:xlink="http://www.w3.org/1999/xlink"><radialGradient id="a" cx="0" cy="0" gradientTransform="matrix(18.8757 0 0 15.7759 14 13.3731)" gradientUnits="userSpaceOnUse" r="1"><stop offset=".82" stop-color="#0b5cff" stop-opacity="0"/><stop offset=".98" stop-color="#003cb3"/></radialGradient><radialGradient id="b" cx="0" cy="0" gradientTransform="matrix(18.8689 0 0 15.7702 13.9999 16.6211)" gradientUnits="userSpaceOnUse" r="1"><stop offset=".8" stop-color="#0b5cff" stop-opacity="0"/><stop offset="1" stop-color="#71a5f1"/></radialGradient><clipPath id="c"><path d="m5 6h18v18h-18z"/></clipPath><path d="m28 15c0 1.4971-.1204 2.9651-.3503 4.3965-.7611 4.7386-4.5146 8.4921-9.2532 9.2532-1.4315.2299-2.8995.3503-4.3965.3503s-2.965-.1204-4.39645-.3503c-4.73861-.7611-8.4922-4.5146-9.253277-9.2532-.229907-1.4314-.350273-2.8994-.350273-4.3965s.120366-2.9651.350273-4.3965c.761077-4.73861 4.514667-8.49215 9.253277-9.25323 1.43145-.22991 2.89945-.35027 4.39645-.35027s2.965.12036 4.3965.35027c4.7386.76108 8.4921 4.51462 9.2532 9.25323.2299 1.4314.3503 2.8994.3503 4.3965z" fill="#0b5cff"/><path d="m28 15c0 1.4971-.1204 2.9651-.3503 4.3965-.7611 4.7386-4.5146 8.4921-9.2532 9.2532-1.4315.2299-2.8995.3503-4.3965.3503s-2.965-.1204-4.39645-.3503c-4.73861-.7611-8.4922-4.5146-9.253277-9.2532-.229907-1.4314-.350273-2.8994-.350273-4.3965s.120366-2.9651.350273-4.3965c.761077-4.73861 4.514667-8.49215 9.253277-9.25323 1.43145-.22991 2.89945-.35027 4.39645-.35027s2.965.12036 4.3965.35027c4.7386.76108 8.4921 4.51462 9.2532 9.25323.2299 1.4314.3503 2.8994.3503 4.3965z" fill="url(#a)"/><path d="m27.9999 15c0 1.4971-.1204 2.9651-.3503 4.3965-.7611 4.7386-4.5146 8.4921-9.2532 9.2532-1.4315.2299-2.8994.3503-4.3965.3503-1.497 0-2.965-.1204-4.39641-.3503-4.73865-.7611-8.49219-4.5146-9.253267-9.2532-.229907-1.4315-.350223-2.8994-.350223-4.3965 0-1.497.120316-2.9651.350223-4.3966.761127-4.73851 4.514667-8.49215 9.253267-9.25318 1.43151-.2299 2.89941-.35022 4.39641-.35022 1.4971 0 2.9651.12032 4.3965.35022 4.7386.76103 8.4921 4.51467 9.2532 9.25318.2299 1.4315.3503 2.8995.3503 4.3966z" fill="url(#b)"/><g clip-path="url(#c)"><path clip-rule="evenodd" d="m20 8h-12c-1.10455 0-2 .89539-2 2v10c0 1.1045.89545 2 2 2h12c1.1046 0 2-.8955 2-2v-10c0-1.10461-.8954-2-2-2zm-7.5 2.75c0-.4143.3358-.75.75-.75h1.5c.4142 0 .75.3357.75.75v.5c0 .4142-.3358.75-.75.75h-1.5c-.4142 0-.75-.3358-.75-.75zm-4.5 0c0-.4143.33582-.75.75-.75h1.5c.4142 0 .75.3357.75.75v.5c0 .4142-.3358.75-.75.75h-1.5c-.41418 0-.75-.3358-.75-.75zm12 8.5c0 .4142-.3358.75-.75.75h-10.5c-.41418 0-.75-.3358-.75-.75v-5.5c0-.4143.33582-.75.75-.75h10.5c.4142 0 .75.3357.75.75zm0-8c0 .4142-.3358.75-.75.75h-1.5c-.4142 0-.75-.3358-.75-.75v-.5c0-.4143.3358-.75.75-.75h1.5c.4142 0 .75.3357.75.75z" fill="#fff" fill-rule="evenodd"/></g></svg>