<svg width="28" height="29" viewBox="0 0 28 29" fill="none" xmlns="http://www.w3.org/2000/svg">
<path d="M28 15C28 16.4971 27.8796 17.9651 27.6497 19.3965C26.8886 24.1351 23.1351 27.8886 18.3965 28.6497C16.965 28.8796 15.497 29 14 29C12.503 29 11.035 28.8796 9.60355 28.6497C4.86494 27.8886 1.11135 24.1351 0.350273 19.3965C0.120366 17.9651 0 16.4971 0 15C0 13.5029 0.120366 12.0349 0.350273 10.6035C1.11135 5.86489 4.86494 2.11135 9.60355 1.35027C11.035 1.12036 12.503 1 14 1C15.497 1 16.965 1.12036 18.3965 1.35027C23.1351 2.11135 26.8886 5.86489 27.6497 10.6035C27.8796 12.0349 28 13.5029 28 15Z" fill="#0B5CFF"/>
<path d="M28 15C28 16.4971 27.8796 17.9651 27.6497 19.3965C26.8886 24.1351 23.1351 27.8886 18.3965 28.6497C16.965 28.8796 15.497 29 14 29C12.503 29 11.035 28.8796 9.60355 28.6497C4.86494 27.8886 1.11135 24.1351 0.350273 19.3965C0.120366 17.9651 0 16.4971 0 15C0 13.5029 0.120366 12.0349 0.350273 10.6035C1.11135 5.86489 4.86494 2.11135 9.60355 1.35027C11.035 1.12036 12.503 1 14 1C15.497 1 16.965 1.12036 18.3965 1.35027C23.1351 2.11135 26.8886 5.86489 27.6497 10.6035C27.8796 12.0349 28 13.5029 28 15Z" fill="url(#paint0_radial_3875_11988)"/>
<path d="M27.9999 15C27.9999 16.4971 27.8795 17.9651 27.6496 19.3965C26.8885 24.1351 23.135 27.8886 18.3964 28.6497C16.9649 28.8796 15.497 29 13.9999 29C12.5029 29 11.0349 28.8796 9.60349 28.6497C4.86484 27.8886 1.1113 24.1351 0.350223 19.3965C0.120316 17.965 0 16.4971 0 15C0 13.503 0.120316 12.0349 0.350223 10.6034C1.11135 5.86489 4.86489 2.11125 9.60349 1.35022C11.035 1.12032 12.5029 1 13.9999 1C15.497 1 16.965 1.12032 18.3964 1.35022C23.135 2.11125 26.8885 5.86489 27.6496 10.6034C27.8795 12.0349 27.9999 13.5029 27.9999 15Z" fill="url(#paint1_radial_3875_11988)"/>
<g clip-path="url(#clip0_3875_11988)">
<path d="M20.5 8.00001H7.5C6.94772 8.00001 6.5 8.44773 6.5 9.00001V11C6.5 11.552 6.94861 11.9998 7.49982 12.0002V19.0002C7.49982 20.1048 8.39525 21.0002 9.49982 21.0002H12.2632C12.2684 20.6536 12.3815 20.3098 12.6174 20.0317L12.6978 19.9373C12.8572 19.7505 12.8572 19.4756 12.6979 19.2886L12.6157 19.1921C12.2545 18.7664 12.152 18.1841 12.3494 17.6699C12.5507 17.1504 12.8312 16.666 13.1821 16.2312C13.4662 15.8779 13.8936 15.6753 14.3547 15.6755C14.448 15.6755 14.5421 15.6838 14.6356 15.7012L14.7531 15.7231C14.9949 15.7683 15.2337 15.6311 15.3161 15.3992L15.3562 15.2866C15.5433 14.7561 15.9986 14.374 16.5428 14.29C16.8158 14.2473 17.096 14.2258 17.3756 14.2258C17.653 14.2258 17.9316 14.2473 18.2027 14.2893C18.7458 14.3728 19.2007 14.7532 19.3903 15.2834L19.4312 15.3987C19.5135 15.6299 19.7515 15.7673 19.9929 15.7229L20.115 15.7004C20.2084 15.6834 20.3024 15.6751 20.3957 15.6751C20.4313 15.6751 20.4648 15.6841 20.4999 15.6865L20.4998 12.0002C21.0511 12.0002 21.5 11.552 21.5 11V9C21.5 8.44772 21.0523 8.00001 20.5 8.00001ZM21.371 18.5425C21.4931 18.3994 21.5357 18.2031 21.4675 18.0281C21.3019 17.6016 21.0719 17.207 20.7889 16.8572C20.6715 16.7112 20.4803 16.6502 20.2957 16.6841L19.6511 16.8027C19.228 16.8809 18.8106 16.6397 18.6667 16.2339L18.4481 15.6184C18.3846 15.4414 18.236 15.3062 18.0505 15.2776C17.83 15.2437 17.6047 15.2258 17.3756 15.2258C17.1447 15.2258 16.9175 15.2437 16.697 15.2781C16.5104 15.3069 16.3619 15.4419 16.2994 15.6191L16.0808 16.2339C15.9368 16.6397 15.5194 16.8809 15.0963 16.8027L14.4545 16.6846C14.27 16.6506 14.0788 16.7119 13.9614 16.8579C13.6784 17.2085 13.4475 17.6038 13.2818 18.0313C13.2146 18.2063 13.2572 18.4023 13.3783 18.5454L13.8033 19.044C14.0825 19.3716 14.0825 19.854 13.8033 20.1819L13.3783 20.6802C13.2572 20.8233 13.2146 21.0193 13.2818 21.1943C13.4475 21.6221 13.6774 22.0171 13.9614 22.3679C14.0788 22.5139 14.27 22.5752 14.4545 22.541L15.0963 22.4229C15.5194 22.345 15.9368 22.586 16.0808 22.992L16.2994 23.6067C16.3619 23.784 16.5104 23.919 16.697 23.9478C16.9175 23.9822 17.1447 24 17.3756 24C17.6047 24 17.83 23.9824 18.0505 23.9483C18.236 23.9197 18.3847 23.7847 18.4481 23.6074L18.6667 22.992C18.8106 22.5859 19.228 22.345 19.6511 22.4229L20.2957 22.5418C20.4803 22.5757 20.6715 22.5144 20.7889 22.3687C21.0719 22.0186 21.3019 21.6243 21.4675 21.1978C21.5357 21.0225 21.4931 20.8262 21.371 20.6834L20.9441 20.1819C20.6649 19.854 20.6649 19.3716 20.9441 19.044L21.371 18.5425ZM17.3784 21.273C16.4617 21.273 15.7184 20.5298 15.7184 19.6131C15.7184 18.6961 16.4617 17.9531 17.3784 17.9531C18.2953 17.9531 19.0384 18.6961 19.0384 19.6131C19.0384 20.5298 18.2953 21.273 17.3784 21.273ZM11 18.5002H10C9.72363 18.5002 9.5 18.2766 9.5 18.0002C9.5 17.7239 9.72363 17.5002 10 17.5002H11C11.2764 17.5002 11.5 17.7239 11.5 18.0002C11.5 18.2766 11.2764 18.5002 11 18.5002ZM11.5 16.5002H10C9.72363 16.5002 9.5 16.2766 9.5 16.0002C9.5 15.7239 9.72363 15.5003 10 15.5003H11.5C11.7764 15.5003 12 15.7239 12 16.0002C12 16.2766 11.7764 16.5002 11.5 16.5002ZM14.5 14.5003H10C9.72363 14.5003 9.5 14.2766 9.5 14.0003C9.5 13.7239 9.72363 13.5002 10 13.5002H14.5C14.7764 13.5002 15 13.7239 15 14.0003C15 14.2766 14.7764 14.5003 14.5 14.5003Z" fill="white"/>
</g>
<defs>
<radialGradient id="paint0_radial_3875_11988" cx="0" cy="0" r="1" gradientUnits="userSpaceOnUse" gradientTransform="translate(14 13.3731) scale(18.8757 15.7759)">
<stop offset="0.82" stop-color="#0B5CFF" stop-opacity="0"/>
<stop offset="0.98" stop-color="#003CB3"/>
</radialGradient>
<radialGradient id="paint1_radial_3875_11988" cx="0" cy="0" r="1" gradientUnits="userSpaceOnUse" gradientTransform="translate(13.9999 16.6211) scale(18.8689 15.7702)">
<stop offset="0.8" stop-color="#0B5CFF" stop-opacity="0"/>
<stop offset="1" stop-color="#71A5F1"/>
</radialGradient>
<clipPath id="clip0_3875_11988">
<rect width="18" height="18" fill="white" transform="translate(5 6)"/>
</clipPath>
</defs>
</svg>
