<svg width="61" height="60" viewBox="0 0 61 60" fill="none" xmlns="http://www.w3.org/2000/svg">
<path d="M60.0405 30C60.0405 33.2081 59.7826 36.3538 59.2899 39.4211C57.659 49.5752 49.6157 57.6185 39.4615 59.2494C36.3942 59.7421 33.2484 60 30.0405 60C26.8327 60 23.6869 59.7421 20.6196 59.2494C10.4654 57.6185 2.42201 49.5752 0.791123 39.4211C0.298465 36.3539 0.0405388 33.2081 0.0405388 30C0.0405388 26.7919 0.298465 23.6462 0.791123 20.5789C2.42201 10.4248 10.4654 2.38147 20.6196 0.75058C23.6869 0.257922 26.8327 0 30.0405 0C33.2484 0 36.3942 0.257922 39.4615 0.75058C49.6157 2.38147 57.659 10.4248 59.2899 20.5789C59.7826 23.6461 60.0405 26.7919 60.0405 30Z" fill="#0B5CFF"/>
<path d="M60.0405 30C60.0405 33.2081 59.7826 36.3538 59.2899 39.4211C57.659 49.5752 49.6157 57.6185 39.4615 59.2494C36.3942 59.7421 33.2484 60 30.0405 60C26.8327 60 23.6869 59.7421 20.6196 59.2494C10.4654 57.6185 2.42201 49.5752 0.791123 39.4211C0.298465 36.3539 0.0405388 33.2081 0.0405388 30C0.0405388 26.7919 0.298465 23.6462 0.791123 20.5789C2.42201 10.4248 10.4654 2.38147 20.6196 0.75058C23.6869 0.257922 26.8327 0 30.0405 0C33.2484 0 36.3942 0.257922 39.4615 0.75058C49.6157 2.38147 57.659 10.4248 59.2899 20.5789C59.7826 23.6461 60.0405 26.7919 60.0405 30Z" fill="url(#paint0_radial_1499_731)"/>
<path d="M60.0403 30C60.0403 33.208 59.7824 36.3538 59.2897 39.421C57.6587 49.5752 49.6155 57.6185 39.4613 59.2493C36.394 59.742 33.2483 59.9999 30.0404 59.9999C26.8326 59.9999 23.6868 59.742 20.6195 59.2493C10.4652 57.6185 2.42192 49.5752 0.791036 39.421C0.298377 36.3537 0.0405579 33.208 0.0405579 30C0.0405579 26.792 0.298377 23.6461 0.791036 20.5788C2.42203 10.4248 10.4653 2.38126 20.6195 0.750478C23.6869 0.257819 26.8325 0 30.0404 0C33.2484 0 36.3941 0.257819 39.4613 0.750478C49.6156 2.38126 57.6589 10.4248 59.2897 20.5788C59.7824 23.6461 60.0403 26.7918 60.0403 30Z" fill="url(#paint1_radial_1499_731)"/>
<g clip-path="url(#clip0_1499_731)">
<path d="M47.9386 17.659C46.7928 17.2636 45.5947 16.7363 44.7379 15.8409L44.7354 15.8384C43.8935 14.9579 43.3356 13.8511 42.9022 12.6349C42.7527 12.2171 42.1599 12.2171 42.013 12.6349C41.6145 13.7765 41.054 14.9604 40.1773 15.8384C39.3005 16.7164 38.0701 17.2511 36.9318 17.654C36.5108 17.8033 36.5183 18.3977 36.9392 18.5444C38.0999 18.9474 39.2806 19.497 40.1798 20.3924C41.0789 21.2878 41.5422 22.4568 41.9582 23.6257C42.1101 24.051 42.7154 24.0386 42.8524 23.6083C43.236 22.3996 43.764 21.2206 44.6731 20.3277C45.5723 19.4448 46.7828 18.9275 47.9336 18.5494C48.3595 18.4101 48.362 17.8058 47.9386 17.659Z" fill="white"/>
<path d="M44.9443 29.4218C41.8084 28.3399 38.5305 26.8974 36.1842 24.445V24.4425C33.8827 22.0349 32.3559 19.008 31.1678 15.6777C30.7593 14.5336 29.1378 14.5311 28.7343 15.6777C27.6383 18.7991 26.1139 22.0399 23.7078 24.4425C21.3017 26.8451 17.9367 28.3101 14.8232 29.4119C13.6724 29.8198 13.6899 31.4464 14.8431 31.8468C18.0189 32.9487 21.2669 34.4658 23.7078 36.9033C26.1662 39.3581 27.4341 42.5541 28.5748 45.7551C28.9908 46.9216 30.6497 46.8868 31.0233 45.7079C32.0719 42.3974 33.5489 39.1392 36.0074 36.7267C38.4658 34.3141 41.7785 32.8989 44.9269 31.8618C46.0951 31.4762 46.105 29.8223 44.9443 29.4218Z" fill="white"/>
</g>
<defs>
<radialGradient id="paint0_radial_1499_731" cx="0" cy="0" r="1" gradientUnits="userSpaceOnUse" gradientTransform="translate(30.0405 26.5137) scale(40.4478 33.8055)">
<stop offset="0.82" stop-color="#0B5CFF" stop-opacity="0"/>
<stop offset="0.98" stop-color="#003CB3"/>
</radialGradient>
<radialGradient id="paint1_radial_1499_731" cx="0" cy="0" r="1" gradientUnits="userSpaceOnUse" gradientTransform="translate(30.0404 33.4737) scale(40.4333 33.7934)">
<stop offset="0.8" stop-color="#0B5CFF" stop-opacity="0"/>
<stop offset="1" stop-color="#71A5F1"/>
</radialGradient>
<clipPath id="clip0_1499_731">
<rect width="38.5714" height="38.5714" fill="white" transform="translate(10.7548 10.7144)"/>
</clipPath>
</defs>
</svg>
