<svg width="227" height="31" viewBox="0 0 227 31" fill="none" xmlns="http://www.w3.org/2000/svg">
<g clip-path="url(#clip0_12337_6722)">
<path d="M113.969 5.35083H117.638L112.976 25.3518H108.838L105.472 10.0129L102.161 25.3518H97.9678L93.2773 5.35083H97.085L100.285 20.8001L103.458 5.35083H107.514L110.934 20.8274L113.969 5.35083ZM124.922 25.7102C121.308 25.7102 117.611 23.3098 117.611 17.9583C117.611 12.6057 121.308 10.178 124.922 10.178C128.536 10.178 132.232 12.6057 132.232 17.9583C132.232 23.3098 128.536 25.7102 124.922 25.7102ZM128.84 17.9583C128.84 14.5373 126.991 12.8547 124.922 12.8547C122.853 12.8547 121.004 14.5374 121.004 17.9583C121.004 21.3791 122.853 23.0344 124.922 23.0344C126.991 23.0344 128.84 21.3792 128.84 17.9583ZM140.956 13.7649C138.887 13.7649 137.701 14.592 137.701 17.5715V25.3518H134.418V10.509H137.646V13.1575C138.445 11.5022 139.88 10.509 141.674 10.4817C141.922 10.4817 142.28 10.509 142.528 10.5373V13.8479C141.977 13.7922 141.453 13.7649 140.956 13.7649ZM147.838 16.468L153.327 10.509H157.272L151.59 16.6067L157.907 25.3518H154.072L149.41 18.9241L147.838 20.6067V25.3518H144.555V5.35083H147.838L147.838 16.468ZM162.635 12.4953C163.518 11.0334 165.062 10.178 167.049 10.178C170.663 10.178 173.422 13.1858 173.422 17.9309C173.422 22.7034 170.663 25.7102 167.049 25.7102C165.062 25.7102 163.518 24.8547 162.635 23.3928V30.1799H159.353V10.509H162.635V12.4953ZM170.001 17.9309C170.001 14.8127 168.622 12.8547 166.332 12.8547C164.18 12.8547 162.497 14.51 162.497 17.9309C162.497 21.3518 164.18 23.0344 166.332 23.0344C168.622 23.0344 170.001 21.0754 170.001 17.9309ZM175.916 25.3518V5.35083H179.199V25.3518H175.916ZM191.61 16.0823V15.8059C191.61 13.2678 190.148 12.4953 188.521 12.4953C186.865 12.4953 185.624 13.3782 185.541 15.1721H182.313C182.534 12.1369 185.045 10.0676 188.631 10.0676C192.189 10.0676 194.977 11.6955 194.894 16.4407C194.894 17.1858 194.838 18.9241 194.838 20.2756C194.838 22.1516 195.004 24.1106 195.279 25.3518H192.272C192.162 24.717 192.052 24.3586 191.997 23.3381C191.059 24.9377 189.293 25.7102 187.113 25.7102C183.886 25.7102 181.624 23.9719 181.624 21.2688C181.624 17.5715 186.176 16.634 191.61 16.0823ZM185.1 21.1858C185.1 22.4826 186.176 23.2551 187.831 23.2551C190.259 23.2551 191.693 22.0139 191.693 19.5032V18.3723C187.004 18.8137 185.1 19.4758 185.1 21.1858ZM207.697 15.5852C207.421 14.0129 206.042 12.9094 204.248 12.9094C202.207 12.9094 200.358 14.427 200.358 17.9309C200.358 21.4621 202.234 22.9787 204.166 22.9787C205.766 22.9787 207.394 22.2619 207.808 20.2756H211.008C210.346 23.7512 207.283 25.7102 204.11 25.7102C199.807 25.7102 196.965 22.3723 196.965 17.9582C196.965 13.5442 199.834 10.178 204.248 10.178C207.477 10.178 210.346 12.2747 210.897 15.5852L207.697 15.5852ZM219.771 22.9787C221.481 22.9787 222.833 22.2893 223.412 20.9104H226.641C225.951 23.2824 223.744 25.7102 219.909 25.7102C215.137 25.7102 212.405 22.0686 212.405 17.8205C212.405 13.3508 215.467 10.1779 219.688 10.1779C224.24 10.1779 227.082 13.8752 226.806 18.8684H215.743C215.964 21.6272 217.895 22.9787 219.771 22.9787ZM223.468 16.468C223.385 14.1506 221.619 12.7444 219.688 12.7444C218.144 12.7444 216.02 13.6545 215.743 16.468H223.468Z" fill="#0D213F"/>
<path d="M17.8654 25.3519H2.89511C1.84477 25.3519 0.906341 24.7249 0.504401 23.7545C0.102461 22.7841 0.322681 21.6771 1.0654 20.9345L11.4348 10.5652H4.00284C1.96122 10.5652 0.306161 8.91013 0.306161 6.8685H14.1121C15.1623 6.8685 16.1007 7.49538 16.5027 8.46576C16.9047 9.43614 16.6846 10.543 15.942 11.2859L5.5726 21.6552H14.1687C16.2104 21.6552 17.8654 23.3103 17.8654 25.3519ZM84.0361 13.7998C84.0361 9.82494 80.8023 6.59125 76.8275 6.59125C74.7014 6.59125 72.7879 7.51705 71.4673 8.98606C70.1468 7.51704 68.2333 6.59125 66.1071 6.59125C62.1324 6.59125 58.8986 9.82495 58.8986 13.7998V25.3519C60.9402 25.3519 62.5953 23.6969 62.5953 21.6552V13.7998C62.5953 11.8633 64.1707 10.2879 66.1071 10.2879C68.0436 10.2879 69.619 11.8633 69.619 13.7998V21.6552C69.619 23.6969 71.2741 25.3519 73.3157 25.3519V13.7998C73.3157 11.8633 74.8911 10.2879 76.8275 10.2879C78.764 10.2879 80.3394 11.8633 80.3394 13.7998V21.6552C80.3394 23.6969 81.9944 25.3519 84.0361 25.3519V13.7998ZM57.0503 16.1102C57.0503 21.3674 52.7885 25.6292 47.5313 25.6292C42.2741 25.6292 38.0123 21.3674 38.0123 16.1102C38.0123 10.853 42.2741 6.59125 47.5313 6.59125C52.7885 6.59125 57.0503 10.853 57.0503 16.1102ZM53.3536 16.1102C53.3536 12.8946 50.7469 10.2879 47.5313 10.2879C44.3158 10.2879 41.709 12.8946 41.709 16.1102C41.709 19.3258 44.3158 21.9325 47.5313 21.9325C50.7469 21.9325 53.3536 19.3258 53.3536 16.1102ZM36.5337 16.1102C36.5337 21.3674 32.2719 25.6292 27.0147 25.6292C21.7575 25.6292 17.4958 21.3674 17.4958 16.1102C17.4958 10.853 21.7576 6.59125 27.0147 6.59125C32.2719 6.59125 36.5337 10.853 36.5337 16.1102ZM32.837 16.1102C32.837 12.8946 30.2303 10.2879 27.0147 10.2879C23.7992 10.2879 21.1924 12.8946 21.1924 16.1102C21.1924 19.3258 23.7992 21.9325 27.0147 21.9325C30.2303 21.9325 32.837 19.3258 32.837 16.1102Z" fill="#0B5CFF"/>
</g>
<defs>
<clipPath id="clip0_12337_6722">
<rect width="226.518" height="30.7039" fill="white" transform="translate(0.306152)"/>
</clipPath>
</defs>
</svg>
