<svg xmlns="http://www.w3.org/2000/svg" viewBox="0 0 198.96 25.2"><defs><style>.cls-1{fill:#0d213f;}.cls-2{fill:#0b5cff;}</style></defs><g id="Layer_2" data-name="Layer 2"><g id="Layer_1-2" data-name="Layer 1"><path class="cls-1" d="M101.21,5.55c0-3.78,4-5.55,7.31-5.55,3.67,0,6.85,1.68,7.62,5.71h-3c-.63-2.37-2.81-3.09-4.71-3.09-1.47,0-4,.69-4,2.79,0,1.66,1.32,2.51,3,2.87l2.37.5c3.2.66,6.71,1.88,6.71,5.9s-3.81,6.05-7.7,6.05c-4.64,0-7.76-2.57-8.23-6.76h3.09a4.88,4.88,0,0,0,5.25,4.14c2.59,0,4.41-1.24,4.41-3.18s-2-2.9-4.14-3.34l-2.45-.49C103.91,10.52,101.21,8.91,101.21,5.55Zm22.43,15.18c-3.5,0-4.85-2.18-4.85-5.77V5.52h2.87v8.67c0,2.15.35,4.11,3,4.11,2.4,0,3.59-1.79,3.59-4.72V5.52h2.87V20.37h-2.9v-2.1A4.85,4.85,0,0,1,123.64,20.73Zm13.45-13a5.07,5.07,0,0,1,4.63-2.45c3.45,0,6.41,2.89,6.41,7.72s-3,7.76-6.41,7.76a5.08,5.08,0,0,1-4.63-2.46V25.2h-2.88V5.52h2.88Zm8,5.27c0-3.34-1.63-5.33-4-5.33C138.85,7.64,137,9.3,137,13s1.88,5.36,4.09,5.36C143.43,18.33,145.06,16.31,145.06,13Zm8.09-5.27a5.07,5.07,0,0,1,4.63-2.45c3.45,0,6.41,2.89,6.41,7.72s-3,7.76-6.41,7.76a5.08,5.08,0,0,1-4.63-2.46V25.2h-2.88V5.52h2.88Zm8,5.27c0-3.34-1.63-5.33-4-5.33C154.91,7.64,153,9.3,153,13s1.87,5.36,4.08,5.36C159.49,18.33,161.12,16.31,161.12,13Zm11.65,7.76c-3.51,0-7.21-2.38-7.21-7.73s3.7-7.75,7.21-7.75S180,7.62,180,13,176.3,20.73,172.77,20.73ZM177,13c0-3.7-2-5.33-4.19-5.33S168.6,9.25,168.6,13s2,5.3,4.17,5.3S177,16.62,177,13Zm11.45-4.61c-2.2,0-3.36,1.08-3.36,4.2v7.78h-2.88V5.52H185V8.14a4.45,4.45,0,0,1,4.11-2.68,7.13,7.13,0,0,1,.8,0v3C189.38,8.42,188.88,8.39,188.41,8.39ZM196,1.71V5.52H199V7.7H196v8.47c0,1.52.25,1.91,1.68,1.91h1.22v2.29h-2.1c-3,0-3.67-.75-3.67-3.81V7.7H190.9V5.52h2.26V1.71Z"/><path class="cls-2" d="M19,20.33H2.89A2.89,2.89,0,0,1,.31,18.82a2.81,2.81,0,0,1,.51-3.27L12,4.33H4a4,4,0,0,1-4-4H14.85a2.89,2.89,0,0,1,2.58,1.51,2.81,2.81,0,0,1-.51,3.27L5.7,16.33H15A4,4,0,0,1,19,20.33ZM82.81,0A7.8,7.8,0,0,0,77,2.62,7.8,7.8,0,0,0,71.19,0,8,8,0,0,0,63.4,8V20.33a4,4,0,0,0,4-4V7.92A3.87,3.87,0,0,1,71.05,4a3.81,3.81,0,0,1,4,3.8v8.5a4,4,0,0,0,4,4V7.92A3.87,3.87,0,0,1,82.65,4a3.81,3.81,0,0,1,3.95,3.8v8.5a4,4,0,0,0,4,4V8A8,8,0,0,0,82.81,0ZM39.2,10.33A10.3,10.3,0,1,1,28.9,0,10.31,10.31,0,0,1,39.2,10.33Zm-4,0a6.3,6.3,0,1,0-6.3,6.3A6.31,6.31,0,0,0,35.2,10.33Zm26.2,0A10.3,10.3,0,1,1,51.1,0,10.31,10.31,0,0,1,61.4,10.33Zm-4,0a6.3,6.3,0,1,0-6.3,6.3A6.31,6.31,0,0,0,57.4,10.33Z"/></g></g></svg>