<svg xmlns="http://www.w3.org/2000/svg" enable-background="new 0 0 16 16" viewBox="0 0 16 16"><g id="line" display="none"><path d="m8.5.5h5l-6 7.5 6 7.5h-5.5l-5.5-7.5 4.8-6.5" style="display:inline;opacity:.2;stroke:#000;stroke-linecap:round;stroke-linejoin:round;stroke-miterlimit:10"/></g><g id="line_1_x2C_5" display="none"><g display="inline"><path d="m13.3 16h-5c-.2 0-.5-.1-.6-.3l-5.5-7.2c-.2-.3-.2-.6 0-.9l4-5.3c.2-.3.7-.4 1-.1s.4.7.1 1.1l-3.6 4.7 4.9 6.5h3l-5-6c-.2-.3-.2-.7 0-1l5-6h-3.3c-.4 0-.8-.3-.8-.8s.3-.7.8-.7h5c.3 0 .6.2.7.4.1.3 0 .6-.2.8l-5.6 6.8 5.6 6.8c.2.2.2.5.1.8-.1.2-.4.4-.6.4z"/></g></g><g id="line_expanded" display="none"><g display="inline"><path d="m13.5 16h-5.5c-.2 0-.3-.1-.4-.2l-5.5-7.5c-.1-.2-.1-.4 0-.6l4.8-6.5c.1-.2.4-.3.7-.1.2.2.3.5.1.7l-4.6 6.2 5.1 7h4.2l-5.3-6.7c-.1-.2-.1-.4 0-.6l5.4-6.7h-4c-.3 0-.5-.2-.5-.5s.2-.5.5-.5h5c.2 0 .4.1.5.3 0 .2 0 .4-.1.5l-5.8 7.2 5.8 7.2c.1.2.1.4.1.5-.1.2-.3.3-.5.3z"/></g></g><g id="solid"><g><path d="m13.5 16h-5.5c-.2 0-.3-.1-.4-.2l-5.5-7.5c-.1-.2-.1-.4 0-.6l6-7.5c.1-.1.2-.2.4-.2h5c.2 0 .4.1.5.3 0 .2 0 .4-.1.5l-5.8 7.2 5.8 7.2c.1.2.1.4.1.5-.1.2-.3.3-.5.3z" fill="#0e71eb"/></g></g></svg>